<?xml version="1.0" encoding="UTF-8"?>
<!-- Generator: Adobe Illustrator 21.1.0, SVG Export Plug-In . SVG Version: 6.00 Build 0)  -->
<svg version="1.1" id="Layer_1" xmlns="http://www.w3.org/2000/svg" xmlns:xlink="http://www.w3.org/1999/xlink" x="0px" y="0px" viewBox="0 0 146.2 35.4" style="enable-background:new 0 0 146.2 35.4;" xml:space="preserve">
<style type="text/css">
	.logo-ci-investments-dlafknjfs{fill:#004B85;}
</style>
<g>
	<path class="logo-ci-investments-dlafknjfs" d="M5.4,17.7c0-8.6,6-15.8,14.1-17.6C18.9,0,18.3,0,17.7,0C7.9,0,0,7.9,0,17.7s7.9,17.7,17.7,17.7   c0.6,0,1.2,0,1.8-0.1C11.5,33.5,5.4,26.3,5.4,17.7L5.4,17.7z"/>
	<path class="logo-ci-investments-dlafknjfs" d="M28.5,25.6V9.7h3v15.9H28.5L28.5,25.6z M15.4,20.2c0.5,0.8,1.1,1.5,2,1.9c0.8,0.5,1.8,0.7,2.8,0.7   c0.9,0,1.7-0.2,2.4-0.5s1.5-0.9,2.4-1.8l2,2.1c-1.2,1.1-2.3,1.9-3.3,2.4c-1,0.4-2.2,0.7-3.6,0.7c-2.5,0-4.5-0.8-6.1-2.3   c-1.6-1.6-2.4-3.6-2.4-6c0-1.6,0.4-3,1.1-4.2c0.7-1.2,1.7-2.2,3.1-3c1.3-0.7,2.8-1.1,4.3-1.1c1.3,0,2.6,0.3,3.8,0.8   c1.2,0.6,2.3,1.3,3.1,2.4l-2.1,2C23.5,12.8,21.8,12,20,12c-1.5,0-2.8,0.5-3.8,1.6c-1,1-1.6,2.3-1.6,3.8   C14.7,18.5,14.9,19.4,15.4,20.2L15.4,20.2z M23.1,0.8C14,1,6.6,8.5,6.6,17.7c0,9.2,7.4,16.7,16.5,16.9c7.2-2.3,12.4-9,12.4-16.9   C35.4,9.8,30.2,3.1,23.1,0.8L23.1,0.8z"/>
	<polygon class="logo-ci-investments-dlafknjfs" points="39.4,9.8 42,9.8 42,25.7 39.4,25.7  "/>
	<path class="logo-ci-investments-dlafknjfs" d="M43.7,14.9h2.7V16c0.6-0.5,1.2-0.9,1.7-1.1s1-0.3,1.5-0.3c1.1,0,2,0.4,2.7,1.1c0.6,0.6,0.9,1.6,0.9,2.8v7.1   h-2.7v-4.7c0-1.3-0.1-2.1-0.2-2.6c-0.1-0.4-0.3-0.7-0.6-1c-0.3-0.2-0.6-0.3-1.1-0.3s-1,0.2-1.4,0.6s-0.7,0.9-0.8,1.5   c-0.1,0.3-0.1,1.1-0.1,2.2v4.3h-2.7V14.9H43.7z"/>
	<polygon class="logo-ci-investments-dlafknjfs" points="53.5,14.9 56.3,14.9 59,21.2 61.8,14.9 64.5,14.9 59.8,25.7 58.1,25.7  "/>
	<path class="logo-ci-investments-dlafknjfs" d="M72.5,18.9c-0.2-0.6-0.5-1.1-1.1-1.5c-0.5-0.4-1.1-0.6-1.8-0.6c-0.8,0-1.4,0.2-2,0.6c-0.4,0.3-0.7,0.7-1,1.4   h5.9V18.9z M75.2,21h-8.7c0.1,0.8,0.5,1.4,1,1.8c0.5,0.5,1.2,0.7,2.1,0.7c1,0,1.9-0.4,2.6-1.1l2.3,1.1c-0.6,0.8-1.2,1.4-2,1.8   s-1.7,0.6-2.8,0.6c-1.7,0-3.1-0.5-4.1-1.6c-1.1-1.1-1.6-2.4-1.6-4s0.5-3,1.6-4.1s2.4-1.6,4-1.6c1.7,0,3.1,0.5,4.1,1.6   c1.1,1.1,1.6,2.5,1.6,4.3L75.2,21L75.2,21z"/>
	<path class="logo-ci-investments-dlafknjfs" d="M83.3,16.4l-1.7,1.7c-0.7-0.7-1.3-1-1.9-1c-0.3,0-0.5,0.1-0.7,0.2s-0.3,0.3-0.3,0.5c0,0.1,0.1,0.3,0.2,0.4   s0.4,0.3,0.8,0.5l1,0.5c1,0.5,1.8,1,2.1,1.6c0.4,0.5,0.6,1.2,0.6,1.9c0,1-0.4,1.8-1.1,2.4s-1.6,1-2.8,1c-1.6,0-2.8-0.6-3.8-1.8   l1.7-1.8c0.3,0.4,0.7,0.7,1.1,0.9c0.4,0.2,0.8,0.3,1.1,0.3c0.4,0,0.6-0.1,0.9-0.3c0.2-0.2,0.3-0.4,0.3-0.6c0-0.4-0.4-0.8-1.2-1.2   l-0.9-0.5c-1.8-0.9-2.6-2-2.6-3.3c0-0.9,0.3-1.6,1-2.2s1.5-0.9,2.5-0.9c0.7,0,1.4,0.2,2,0.5C82.3,15.4,82.8,15.8,83.3,16.4   L83.3,16.4z"/>
	<polygon class="logo-ci-investments-dlafknjfs" points="85.6,10.9 88.3,10.9 88.3,14.9 89.9,14.9 89.9,17.2 88.3,17.2 88.3,25.7 85.6,25.7 85.6,17.2    84.2,17.2 84.2,14.9 85.6,14.9  "/>
	<path class="logo-ci-investments-dlafknjfs" d="M90.9,14.9h2.7v1.2c0.5-0.5,1-0.9,1.5-1.1c0.6-0.3,1.2-0.4,1.8-0.4c0.7,0,1.3,0.2,1.8,0.5s1,0.8,1.3,1.5   c0.4-0.6,1-1.1,1.6-1.5c0.6-0.3,1.3-0.5,2-0.5c0.8,0,1.4,0.2,2,0.5c0.6,0.4,1,0.8,1.3,1.4s0.4,1.5,0.4,2.8v6.3h-2.7v-5.5   c0-1.2-0.2-2-0.5-2.5c-0.3-0.4-0.8-0.6-1.4-0.6c-0.5,0-0.9,0.1-1.3,0.4s-0.6,0.6-0.8,1.1c-0.2,0.5-0.3,1.2-0.3,2.2v4.9h-2.7v-5.2   c0-1-0.1-1.7-0.2-2.1s-0.4-0.8-0.6-1c-0.3-0.2-0.6-0.3-1-0.3c-0.5,0-0.9,0.1-1.2,0.4c-0.4,0.3-0.6,0.6-0.8,1.1   c-0.2,0.5-0.3,1.2-0.3,2.3v4.8h-2.7V14.9H90.9z"/>
	<path class="logo-ci-investments-dlafknjfs" d="M116.9,18.9c-0.2-0.6-0.5-1.1-1.1-1.5c-0.5-0.4-1.1-0.6-1.8-0.6c-0.8,0-1.4,0.2-2,0.6c-0.4,0.3-0.7,0.7-1,1.4   h5.9V18.9z M119.6,21h-8.7c0.1,0.8,0.5,1.4,1,1.8c0.5,0.5,1.2,0.7,2.1,0.7c1,0,1.9-0.4,2.6-1.1l2.3,1.1c-0.6,0.8-1.2,1.4-2,1.8   s-1.7,0.6-2.8,0.6c-1.7,0-3.1-0.5-4.1-1.6c-1.1-1.1-1.6-2.4-1.6-4s0.5-3,1.6-4.1s2.4-1.6,4-1.6c1.7,0,3.1,0.5,4.1,1.6   c1.1,1.1,1.6,2.5,1.6,4.3L119.6,21L119.6,21z"/>
	<path class="logo-ci-investments-dlafknjfs" d="M120.6,14.9h2.7V16c0.6-0.5,1.2-0.9,1.7-1.1s1-0.3,1.5-0.3c1.1,0,2,0.4,2.7,1.1c0.6,0.6,0.9,1.6,0.9,2.8v7.1   h-2.6v-4.7c0-1.3-0.1-2.1-0.2-2.6c-0.1-0.4-0.3-0.7-0.6-1c-0.3-0.2-0.6-0.3-1.1-0.3s-1,0.2-1.4,0.6s-0.7,0.9-0.8,1.5   c-0.1,0.3-0.1,1.1-0.1,2.2v4.3h-2.7L120.6,14.9L120.6,14.9z"/>
	<polygon class="logo-ci-investments-dlafknjfs" points="132.4,10.9 135.1,10.9 135.1,14.9 136.7,14.9 136.7,17.2 135.1,17.2 135.1,25.7 132.4,25.7    132.4,17.2 131,17.2 131,14.9 132.4,14.9  "/>
	<path class="logo-ci-investments-dlafknjfs" d="M144.3,16.4l-1.7,1.7c-0.7-0.7-1.3-1-1.9-1c-0.3,0-0.5,0.1-0.7,0.2s-0.3,0.3-0.3,0.5c0,0.1,0.1,0.3,0.2,0.4   s0.4,0.3,0.8,0.5l1,0.5c1,0.5,1.8,1,2.1,1.6c0.4,0.5,0.6,1.2,0.6,1.9c0,1-0.4,1.8-1.1,2.4s-1.6,1-2.8,1c-1.6,0-2.8-0.6-3.8-1.8   l1.7-1.8c0.3,0.4,0.7,0.7,1.1,0.9c0.4,0.2,0.8,0.3,1.1,0.3c0.4,0,0.6-0.1,0.9-0.3c0.2-0.2,0.3-0.4,0.3-0.6c0-0.4-0.4-0.8-1.2-1.2   l-0.9-0.5c-1.7-0.9-2.6-2-2.6-3.3c0-0.9,0.3-1.6,1-2.2s1.5-0.9,2.5-0.9c0.7,0,1.4,0.2,2,0.5C143.4,15.4,143.9,15.8,144.3,16.4   L144.3,16.4z"/>
	<path class="logo-ci-investments-dlafknjfs" d="M144.7,14.3h0.2c0.2,0,0.3-0.1,0.3-0.2s-0.1-0.2-0.3-0.2c-0.1,0-0.1,0-0.2,0V14.3L144.7,14.3z M144.7,15.1   h-0.2v-1.3c0.1,0,0.2,0,0.4,0c0.2,0,0.3,0,0.4,0.1s0.1,0.1,0.1,0.3c0,0.2-0.1,0.3-0.3,0.3l0,0c0.1,0,0.2,0.1,0.2,0.3   c0,0.2,0.1,0.3,0.1,0.3h-0.2c0,0-0.1-0.2-0.1-0.3c0-0.2-0.1-0.2-0.3-0.2h-0.1V15.1L144.7,15.1z M144.9,13.3c-0.5,0-1,0.5-1,1   c0,0.6,0.4,1,1,1c0.5,0,1-0.5,1-1S145.5,13.3,144.9,13.3L144.9,13.3L144.9,13.3z M145,13.1c0.7,0,1.2,0.5,1.2,1.2s-0.5,1.2-1.2,1.2   s-1.2-0.5-1.2-1.2C143.7,13.7,144.3,13.1,145,13.1L145,13.1L145,13.1z"/>
</g>
</svg>