<?xml version="1.0" encoding="UTF-8"?>
<!-- Generator: Adobe Illustrator 21.1.0, SVG Export Plug-In . SVG Version: 6.00 Build 0)  -->
<svg version="1.1" id="Layer_1" xmlns="http://www.w3.org/2000/svg" xmlns:xlink="http://www.w3.org/1999/xlink" x="0px" y="0px" viewBox="0 0 138.1 26" style="enable-background:new 0 0 138.1 26;" xml:space="preserve">
<style type="text/css">
	.st0{fill:#A5BAC2;}
	.st1{fill:#5D8E9D;}
	.st2{fill:#00687E;}
	.st3{fill:#58595B;}
</style>
<g>
	<g>
		<rect y="18.4" class="st0" width="7.5" height="7.5"/>
		<rect x="9.6" y="18.4" class="st0" width="7.5" height="7.5"/>
		<rect x="19.3" y="18.4" class="st0" width="7.5" height="7.5"/>
		<rect y="9.2" class="st1" width="7.5" height="7.5"/>
		<rect x="9.6" y="9.2" class="st1" width="7.5" height="7.5"/>
		<rect x="19.3" y="9.2" class="st1" width="7.5" height="7.5"/>
		<rect class="st2" width="7.5" height="7.5"/>
		<rect x="9.6" class="st2" width="7.5" height="7.5"/>
		<rect x="19.3" class="st2" width="7.5" height="7.5"/>
	</g>
	<g>
		<path class="st2" d="M57.4,36.9"/>
	</g>
	<g>
		<path d="M31.4,0.7h8.7v2.2h-6.3v3.5h5.9v2.2h-5.9v5.6h-2.4V0.7z"/>
		<path d="M41.5,0.7h2.4v13.5h-2.4V0.7z"/>
		<path d="M46.3,0.7H51c2.6,0,5,0.8,5,3.9c0,1.9-1.1,3.4-3.1,3.6l3.6,5.9h-2.9l-3.1-5.7h-1.7v5.7h-2.4V0.7z M50.6,6.4    c1.3,0,2.9-0.1,2.9-1.9c0-1.6-1.5-1.8-2.7-1.8h-2.1v3.6H50.6z"/>
		<path d="M64.3,3.6c-0.5-0.7-1.4-1.1-2.4-1.1c-1.1,0-2.2,0.5-2.2,1.7c0,2.7,6.4,1.2,6.4,5.9c0,2.9-2.3,4.3-4.9,4.3    c-1.7,0-3.3-0.5-4.4-1.8l1.8-1.7c0.6,0.9,1.6,1.4,2.7,1.4c1.1,0,2.4-0.6,2.4-1.8c0-2.9-6.4-1.3-6.4-6.1c0-2.8,2.5-4.1,5-4.1    c1.4,0,2.8,0.4,3.9,1.4L64.3,3.6z"/>
		<path d="M71,2.8h-4.1V0.7h10.6v2.2h-4.1v11.3H71V2.8z"/>
		<path d="M88.2,0.7h2.1l5.8,13.5h-2.7L92.1,11h-5.8L85,14.1h-2.7L88.2,0.7z M91.3,9l-2.1-5.5L87.1,9H91.3z"/>
		<path d="M103.9,3.6c-0.5-0.7-1.4-1.1-2.4-1.1c-1.1,0-2.2,0.5-2.2,1.7c0,2.7,6.4,1.2,6.4,5.9c0,2.9-2.3,4.3-4.9,4.3    c-1.7,0-3.3-0.5-4.4-1.8l1.8-1.7c0.6,0.9,1.6,1.4,2.7,1.4c1.1,0,2.4-0.6,2.4-1.8c0-2.9-6.4-1.3-6.4-6.1c0-2.8,2.5-4.1,5-4.1    c1.4,0,2.8,0.4,3.9,1.4L103.9,3.6z"/>
		<path d="M114,3.6c-0.5-0.7-1.4-1.1-2.4-1.1c-1.1,0-2.2,0.5-2.2,1.7c0,2.7,6.4,1.2,6.4,5.9c0,2.9-2.3,4.3-4.9,4.3    c-1.7,0-3.3-0.5-4.4-1.8l1.8-1.7c0.6,0.9,1.6,1.4,2.7,1.4c1.1,0,2.4-0.6,2.4-1.8c0-2.9-6.4-1.3-6.4-6.1c0-2.8,2.5-4.1,5-4.1    c1.4,0,2.8,0.4,3.9,1.4L114,3.6z"/>
		<path d="M117.6,0.7h8.9v2.2H120v3.3h6.2v2.2H120v3.6h6.9v2.2h-9.3V0.7z"/>
		<path d="M131.6,2.8h-4.1V0.7h10.6v2.2H134v11.3h-2.4V2.8z"/>
	</g>
	<g>
		<path class="st3" d="M32,25.3h3.2v0.5h-3.8v-5.9H35v0.5H32v2h2.9V23H32V25.3z"/>
		<path class="st3" d="M38.2,22.3l1.6-2.4h0.7l-2,2.8l2.2,3.1H40l-1.8-2.7l-1.8,2.7h-0.7l2.2-3.1l-2-2.8h0.8L38.2,22.3z"/>
		<path class="st3" d="M46.2,24.9C45.8,25.5,45,26,44,26c-1.8,0-3.1-1.3-3.1-3.1c0-1.8,1.3-3.1,3.1-3.1c0.7,0,1.5,0.3,2,0.9    l-0.5,0.4c-0.2-0.4-0.9-0.8-1.5-0.8c-1.5,0-2.4,1.2-2.4,2.5s0.9,2.5,2.4,2.5c0.6,0,1.2-0.2,1.7-0.9L46.2,24.9z"/>
		<path class="st3" d="M47,19.9h0.6v2.6h3.2v-2.6h0.6v5.9h-0.6V23h-3.2v2.8H47V19.9z"/>
		<path class="st3" d="M52.8,25.8h-0.7l2.6-5.9h0.6l2.6,5.9h-0.7l-0.6-1.5h-3L52.8,25.8z M53.7,23.7h2.6L55,20.6L53.7,23.7z"/>
		<path class="st3" d="M62.8,24.9L62.8,24.9l0-5h0.6v5.9h-0.7l-3.5-5h0v5h-0.6v-5.9h0.7L62.8,24.9z"/>
		<path class="st3" d="M69.3,21c-0.4-0.4-1-0.7-1.7-0.7c-1.5,0-2.4,1.2-2.4,2.5s0.9,2.5,2.4,2.5c0.6,0,1.2-0.2,1.6-0.4v-2h-1.4v-0.5    h2v2.9c-0.7,0.4-1.5,0.6-2.2,0.6c-1.8,0-3.1-1.3-3.1-3.1c0-1.8,1.3-3.1,3.1-3.1c0.9,0,1.6,0.3,2.1,0.8L69.3,21z"/>
		<path class="st3" d="M71.8,25.3h3.2v0.5h-3.8v-5.9h3.7v0.5h-3.1v2h2.9V23h-2.9V25.3z"/>
		<path class="st3" d="M79.9,25.8h-0.6v-5.3h-2v-0.5h4.5v0.5h-2V25.8z"/>
		<path class="st3" d="M83.3,25.8h-0.6v-5.9h1.8c1.2,0,1.9,0.5,1.9,1.6c0,0.8-0.5,1.4-1.5,1.5l1.7,2.8h-0.7l-1.6-2.7h-1V25.8z     M83.3,22.5h1.1c1.1,0,1.4-0.5,1.4-1c0-0.6-0.4-1-1.4-1h-1.1V22.5z"/>
		<path class="st3" d="M87.7,25.8H87l2.6-5.9h0.6l2.6,5.9H92l-0.6-1.5h-3L87.7,25.8z M88.6,23.7h2.6l-1.3-3.1L88.6,23.7z"/>
		<path class="st3" d="M93.4,19.9h2c1.5,0,3.1,1,3.1,2.9s-1.6,2.9-3.1,2.9h-2V19.9z M94,25.3h1.2c1.8,0,2.6-1.2,2.6-2.4    s-0.8-2.4-2.6-2.4H94V25.3z"/>
		<path class="st3" d="M100.1,25.3h3.2v0.5h-3.8v-5.9h3.7v0.5h-3.1v2h2.9V23h-2.9V25.3z"/>
		<path class="st3" d="M104.2,19.9h2c1.5,0,3.1,1,3.1,2.9s-1.6,2.9-3.1,2.9h-2V19.9z M104.8,25.3h1.2c1.8,0,2.6-1.2,2.6-2.4    s-0.8-2.4-2.6-2.4h-1.2V25.3z"/>
		<path class="st3" d="M112.9,25.8h-0.6v-5.9h3.6v0.5h-3v2h2.7V23h-2.7V25.8z"/>
		<path class="st3" d="M121,23.6c0,1-0.4,2.3-2.2,2.3s-2.2-1.4-2.2-2.3v-3.7h0.6v3.6c0,1.7,1.1,1.9,1.6,1.9s1.6-0.2,1.6-1.9v-3.6    h0.6V23.6z"/>
		<path class="st3" d="M126.6,24.9L126.6,24.9l0-5h0.6v5.9h-0.7l-3.5-5h0v5h-0.6v-5.9h0.7L126.6,24.9z"/>
		<path class="st3" d="M128.6,19.9h2c1.5,0,3.1,1,3.1,2.9s-1.6,2.9-3.1,2.9h-2V19.9z M129.2,25.3h1.2c1.8,0,2.6-1.2,2.6-2.4    s-0.8-2.4-2.6-2.4h-1.2V25.3z"/>
		<path class="st3" d="M137.5,20.9c-0.3-0.4-0.6-0.6-1.1-0.6c-0.6,0-1.3,0.3-1.3,1.1c0,1.6,3,0.7,3,2.9c0,1.1-1,1.7-1.9,1.7    c-0.7,0-1.4-0.3-1.9-0.9l0.5-0.4c0.2,0.4,0.7,0.7,1.3,0.7c0.6,0,1.3-0.4,1.3-1.1c0-1.7-3-0.7-3-2.9c0-1.1,0.9-1.7,1.9-1.7    c0.7,0,1.2,0.2,1.7,0.7L137.5,20.9z"/>
	</g>
</g>
</svg>