<svg id="5b017413-27a3-4969-9de7-4319fa559b87" data-name="Layer 1" xmlns="http://www.w3.org/2000/svg" viewBox="0 0 557.82 67.63"><defs><style>.\38 faf2a2e-5c5f-4e31-8ed1-90bef82f3e9c{fill:#004b85;}.b49cb5c1-3936-4117-83b5-793b5ef1e562{fill:#6d8cb8;}</style></defs><title>4</title><path class="8faf2a2e-5c5f-4e31-8ed1-90bef82f3e9c" d="M497.14,0h-8.68V7.27C489.82,2.83,493.52.72,497.14,0Z"/><path class="b49cb5c1-3936-4117-83b5-793b5ef1e562" d="M507.52,67a3.38,3.38,0,0,0-.25-.86l-2.86-7.73a24.31,24.31,0,0,0-4.54-.41,25.42,25.42,0,0,0-4.29.41l-2.09,5.68a13.28,13.28,0,0,0-.82,2.74.84.84,0,0,0,.3.73l14.09,0C507.34,67.45,507.52,67.28,507.52,67Z"/><path class="b49cb5c1-3936-4117-83b5-793b5ef1e562" d="M500,47l-3.88,9.89c1.23-.08,2.49-.2,3.72-.2a31.62,31.62,0,0,1,3.92.2Z"/><path class="8faf2a2e-5c5f-4e31-8ed1-90bef82f3e9c" d="M23.67,33.07a11.67,11.67,0,0,1-2,.74q-1.2.33-2.67.59a17.76,17.76,0,0,1-3.09.26,19.81,19.81,0,0,1-6.35-1,13.37,13.37,0,0,1-5-3,14,14,0,0,1-3.3-4.89A17.09,17.09,0,0,1,0,19.23a17.1,17.1,0,0,1,1.2-6.59A13.74,13.74,0,0,1,4.54,7.75a14.43,14.43,0,0,1,5.15-3,20,20,0,0,1,6.61-1,21.77,21.77,0,0,1,5.24.59,24.49,24.49,0,0,1,4.19,1.41,5.72,5.72,0,0,0-.56,1.65q-.22,1-.35,1.74l-.26.09A9.71,9.71,0,0,0,23.34,8a13.41,13.41,0,0,0-1.83-1.26,11.61,11.61,0,0,0-2.35-1,9.47,9.47,0,0,0-2.87-.41,13.42,13.42,0,0,0-4.76.83A10.14,10.14,0,0,0,7.72,8.64,11.86,11.86,0,0,0,5.17,13a19.06,19.06,0,0,0-.91,6.24,19.05,19.05,0,0,0,.91,6.24,11.85,11.85,0,0,0,2.54,4.35,10.12,10.12,0,0,0,3.83,2.54,13.4,13.4,0,0,0,4.76.83,10.18,10.18,0,0,0,2.89-.39,15.42,15.42,0,0,0,2.43-.93,14.51,14.51,0,0,0,2-1.17q.89-.63,1.5-1.11l.17.17-.39,2.56A5.63,5.63,0,0,1,23.67,33.07Z"/><path class="8faf2a2e-5c5f-4e31-8ed1-90bef82f3e9c" d="M37.84,9.86q-.11-2.76-.24-5.63l1.09.15a8.41,8.41,0,0,0,1,.06,8.42,8.42,0,0,0,1-.06l1.09-.15q-.13,2.87-.24,5.63t-.11,5.63V23q0,2.87.11,5.65t.24,5.48q-1-.09-2.13-.09t-2.13.09q.13-2.69.24-5.48T37.95,23V15.49Q37.95,12.62,37.84,9.86Z"/><path class="8faf2a2e-5c5f-4e31-8ed1-90bef82f3e9c" d="M75,9.86q-.11-2.76-.24-5.63l1.09.15a8.41,8.41,0,0,0,1,.06,8.41,8.41,0,0,0,1-.06l1.09-.15q-.13,2.87-.24,5.63t-.11,5.63V23q0,2.87.11,5.65t.24,5.48q-1-.09-2.13-.09t-2.13.09q.13-2.69.24-5.48T75.15,23V15.49Q75.15,12.62,75,9.86Z"/><path class="8faf2a2e-5c5f-4e31-8ed1-90bef82f3e9c" d="M107.58,22.81q-5.65-6.06-11.3-12.06,0,1.22-.09,3.26t0,5.56q0,.91,0,2.26t0,2.83q0,1.48.06,3t.09,2.83q0,1.3.09,2.28t.09,1.33A12.29,12.29,0,0,0,95,34a13.77,13.77,0,0,0-1.61.09q.09-.43.2-1.61t.2-2.8q.09-1.63.2-3.54t.17-3.83q.07-1.91.11-3.74t0-3.26q0-4.17,0-7.17t-.11-4.48h.7l5.67,6.15q3,3.28,6,6.48l5.65,6q2.67,2.85,4.67,4.85V21.27q0-4.56-.07-8.89t-.28-8.15a6.23,6.23,0,0,0,1.48.22,6,6,0,0,0,1.39-.22q-.09,1-.2,2.87T119,11.19q-.11,2.17-.2,4.26t-.09,3.35V21.4q0,1.48,0,3.09t0,3.24q0,1.63,0,3t0,2.46v1.43h-.61Q113.23,28.88,107.58,22.81Z"/><path class="8faf2a2e-5c5f-4e31-8ed1-90bef82f3e9c" d="M134.07,30a7.17,7.17,0,0,0,1.43,1.46A7.27,7.27,0,0,0,140,33a6.43,6.43,0,0,0,2.59-.5,5.77,5.77,0,0,0,3.19-3.35,6.91,6.91,0,0,0,.43-2.46,4.67,4.67,0,0,0-1-3.17,8.45,8.45,0,0,0-2.54-2,29.83,29.83,0,0,0-3.28-1.43,16.89,16.89,0,0,1-3.28-1.63,8.7,8.7,0,0,1-2.54-2.5,7.23,7.23,0,0,1-1-4.09,8.25,8.25,0,0,1,.65-3.33A7.24,7.24,0,0,1,135.07,6a8.94,8.94,0,0,1,3-1.7A11.8,11.8,0,0,1,142,3.67a11.61,11.61,0,0,1,3.61.5,9,9,0,0,1,2.83,1.54,9.4,9.4,0,0,0-.65,1.57q-.26.83-.52,2.09h-.52A11.19,11.19,0,0,0,146.12,8a5.08,5.08,0,0,0-1-1.33,5.61,5.61,0,0,0-1.5-1,4.84,4.84,0,0,0-2.09-.41,6.21,6.21,0,0,0-2.24.39,5.36,5.36,0,0,0-1.78,1.11,4.89,4.89,0,0,0-1.17,1.72,5.63,5.63,0,0,0-.41,2.17,4.73,4.73,0,0,0,1,3.22,8.72,8.72,0,0,0,2.54,2,25.07,25.07,0,0,0,3.28,1.43A18.49,18.49,0,0,1,146,18.84a8.4,8.4,0,0,1,2.54,2.35,6.47,6.47,0,0,1,1,3.83,10,10,0,0,1-.72,3.78,8.89,8.89,0,0,1-2.09,3.11,9.29,9.29,0,0,1-3.35,2,13.15,13.15,0,0,1-4.5.72,11.22,11.22,0,0,1-4.37-.72,11.91,11.91,0,0,1-2.8-1.63,10.29,10.29,0,0,0,.54-1.8q.15-.8.28-2.07h.52A8.73,8.73,0,0,0,134.07,30Z"/><path class="8faf2a2e-5c5f-4e31-8ed1-90bef82f3e9c" d="M167.83,6.49l-2.37,0q-1.24,0-2.48.09l-2.39.15q-1.15.09-2.06.22a5.29,5.29,0,0,0,.22-1.39,6,6,0,0,0-.22-1.35l5.61.15q2.74.07,5.61.06t5.61-.06L181,4.23a6,6,0,0,0-.22,1.39A5.14,5.14,0,0,0,181,7q-.91-.13-2.06-.22L176.5,6.6q-1.24-.07-2.48-.09l-2.37,0q-.13,4.48-.13,9V23q0,2.87.11,5.65t.24,5.48q-1-.09-2.13-.09t-2.13.09q.13-2.7.24-5.48T168,23V15.49Q168,11,167.83,6.49Z"/><path class="8faf2a2e-5c5f-4e31-8ed1-90bef82f3e9c" d="M192.06,9.86q-.11-2.76-.24-5.63l1.09.15a8.42,8.42,0,0,0,1,.06,8.41,8.41,0,0,0,1-.06l1.09-.15q-.13,2.87-.24,5.63t-.11,5.63V23q0,2.87.11,5.65t.24,5.48q-1-.09-2.13-.09t-2.13.09q.13-2.7.24-5.48t.11-5.65V15.49Q192.17,12.62,192.06,9.86Z"/><path class="8faf2a2e-5c5f-4e31-8ed1-90bef82f3e9c" d="M216.68,6.49l-2.37,0q-1.24,0-2.48.09l-2.39.15q-1.15.09-2.06.22a5.27,5.27,0,0,0,.22-1.39,6,6,0,0,0-.22-1.35l5.61.15q2.74.07,5.61.06t5.61-.06l5.61-.15a6.06,6.06,0,0,0-.22,1.39A5.15,5.15,0,0,0,229.81,7q-.91-.13-2.06-.22l-2.39-.15q-1.24-.07-2.48-.09l-2.37,0q-.13,4.48-.13,9V23q0,2.87.11,5.65t.24,5.48q-1-.09-2.13-.09t-2.13.09q.13-2.7.24-5.48t.11-5.65V15.49Q216.81,11,216.68,6.49Z"/><path class="8faf2a2e-5c5f-4e31-8ed1-90bef82f3e9c" d="M264.06,8.84a44.22,44.22,0,0,0-.22-4.61l.91.15a5.85,5.85,0,0,0,.87.06,4.7,4.7,0,0,0,1.3-.22q-.13,1.52-.26,3.63t-.22,4.52q-.09,2.41-.17,5t-.13,4.93a15.74,15.74,0,0,1-.89,5.22,11,11,0,0,1-2.41,3.91A10,10,0,0,1,259,33.83a15.36,15.36,0,0,1-5.24.83q-6.52,0-9.48-3t-3-9.35q0-2,.11-3.63t.11-3.24q0-3.65-.09-6.48t-.17-4.78q.52.09,1.13.15a10.67,10.67,0,0,0,1.13.06,6.62,6.62,0,0,0,.93-.06l.93-.15q-.09,1-.17,2.5t-.17,3.5q-.09,2-.13,4.22t0,4.69q0,1.48,0,3.06a21.39,21.39,0,0,0,.3,3.09,12.85,12.85,0,0,0,.85,2.87,7.05,7.05,0,0,0,1.67,2.39,7.69,7.69,0,0,0,2.74,1.61,12.31,12.31,0,0,0,4.09.59,10.25,10.25,0,0,0,4-.7,7.65,7.65,0,0,0,2.67-1.83,8.34,8.34,0,0,0,1.63-2.61,14.68,14.68,0,0,0,.85-3.09,24.12,24.12,0,0,0,.3-3.22q0-1.61,0-3Q264.11,12.19,264.06,8.84Z"/><path class="8faf2a2e-5c5f-4e31-8ed1-90bef82f3e9c" d="M286.41,6.49l-2.37,0q-1.24,0-2.48.09l-2.39.15Q278,6.84,277.1,7a5.28,5.28,0,0,0,.22-1.39,6,6,0,0,0-.22-1.35l5.61.15q2.74.07,5.61.06t5.61-.06l5.61-.15a6,6,0,0,0-.22,1.39A5.13,5.13,0,0,0,299.53,7q-.91-.13-2.06-.22l-2.39-.15q-1.24-.07-2.48-.09l-2.37,0q-.13,4.48-.13,9V23q0,2.87.11,5.65t.24,5.48q-1-.09-2.13-.09t-2.13.09q.13-2.7.24-5.48t.11-5.65V15.49Q286.54,11,286.41,6.49Z"/><path class="8faf2a2e-5c5f-4e31-8ed1-90bef82f3e9c" d="M309.77,9.86q-.11-2.76-.24-5.63l1.09.15a8.43,8.43,0,0,0,1,.06,8.42,8.42,0,0,0,1-.06l1.09-.15q-.13,2.87-.24,5.63t-.11,5.63V23q0,2.87.11,5.65t.24,5.48q-1-.09-2.13-.09t-2.13.09q.13-2.7.24-5.48t.11-5.65V15.49Q309.88,12.62,309.77,9.86Z"/><path class="8faf2a2e-5c5f-4e31-8ed1-90bef82f3e9c" d="M327.24,12.64a13.75,13.75,0,0,1,3.35-4.89,14.43,14.43,0,0,1,5.15-3,21.31,21.31,0,0,1,13.17,0,14.43,14.43,0,0,1,5.15,3,13.76,13.76,0,0,1,3.35,4.89,17.11,17.11,0,0,1,1.2,6.59,17.1,17.1,0,0,1-1.2,6.59,13.41,13.41,0,0,1-8.5,7.87,21.22,21.22,0,0,1-6.61,1,21.06,21.06,0,0,1-6.56-1,13.41,13.41,0,0,1-8.5-7.87,17.1,17.1,0,0,1-1.2-6.59A17.11,17.11,0,0,1,327.24,12.64Zm26.19.35a11.86,11.86,0,0,0-2.54-4.35,10.13,10.13,0,0,0-3.82-2.54,14,14,0,0,0-9.48,0,10.13,10.13,0,0,0-3.83,2.54A11.87,11.87,0,0,0,331.22,13a19.08,19.08,0,0,0-.91,6.24,19.07,19.07,0,0,0,.91,6.24,11.86,11.86,0,0,0,2.54,4.35,10.12,10.12,0,0,0,3.83,2.54,14,14,0,0,0,9.48,0,10.11,10.11,0,0,0,3.82-2.54,11.85,11.85,0,0,0,2.54-4.35,19.07,19.07,0,0,0,.91-6.24A19.07,19.07,0,0,0,353.43,13Z"/><path class="8faf2a2e-5c5f-4e31-8ed1-90bef82f3e9c" d="M385,22.81q-5.65-6.06-11.3-12.06,0,1.22-.09,3.26t0,5.56q0,.91,0,2.26t0,2.83q0,1.48.06,3t.09,2.83q0,1.3.09,2.28t.09,1.33a12.17,12.17,0,0,0-1.52-.09,13.67,13.67,0,0,0-1.61.09q.09-.43.2-1.61t.2-2.8q.09-1.63.2-3.54t.17-3.83q.07-1.91.11-3.74t0-3.26q0-4.17,0-7.17t-.11-4.48h.7L378,9.82q3,3.28,6,6.48l5.65,6q2.67,2.85,4.67,4.85V21.27q0-4.56-.06-8.89T394,4.23a6.24,6.24,0,0,0,1.48.22,6.06,6.06,0,0,0,1.39-.22q-.09,1-.2,2.87t-.22,4.09q-.11,2.17-.2,4.26t-.09,3.35V21.4q0,1.48,0,3.09t0,3.24q0,1.63,0,3t0,2.46v1.43h-.61Q390.68,28.88,385,22.81Z"/><path class="8faf2a2e-5c5f-4e31-8ed1-90bef82f3e9c" d="M434.76,34.09a8.07,8.07,0,0,0-1.15-.09h-2.3a8.07,8.07,0,0,0-1.15.09q-.3-1-.83-2.41t-1.15-3l-1.28-3.13q-.65-1.59-1.22-3l-2.83-.07-2.87,0-2.65,0-2.65.07Q413.29,26,412.16,29t-1.7,5.06a14.84,14.84,0,0,0-3.22,0q3.52-7.61,6.87-15.13t6.74-15.3h.83l2.26,5.46q1.22,2.93,2.48,5.93t2.52,6q1.26,3,2.37,5.5t2,4.54Q434.19,33.05,434.76,34.09ZM415.5,20.58q1.13,0,2.35,0t2.35,0l2.43,0,2.43-.07-4.82-11Z"/><path class="8faf2a2e-5c5f-4e31-8ed1-90bef82f3e9c" d="M446.17,9.86q-.11-2.76-.24-5.63l1.09.15a8.41,8.41,0,0,0,1,.06,8.41,8.41,0,0,0,1-.06l1.09-.15q-.13,2.87-.24,5.63t-.11,5.63q0,5.48,0,9.5t.09,7.19q3.09,0,5.91-.06a56,56,0,0,0,6.09-.5,5,5,0,0,0-.22,1.3,4,4,0,0,0,.22,1.17q-2-.09-4-.09h-8q-1.94,0-4,.09.13-2.7.24-5.48t.11-5.65V15.49Q446.28,12.62,446.17,9.86Z"/><path class="8faf2a2e-5c5f-4e31-8ed1-90bef82f3e9c" d="M212.95,63a4,4,0,0,0-.58,0h-1.15a4,4,0,0,0-.58,0q-.15-.5-.41-1.21t-.58-1.48L209,58.78q-.33-.79-.61-1.51l-1.41,0h-2.76l-1.33,0q-.7,1.69-1.26,3.23T200.8,63a7.54,7.54,0,0,0-1.61,0q1.76-3.8,3.43-7.56T206,47.81h.41l1.13,2.73,1.24,3,1.26,3q.63,1.48,1.18,2.75l1,2.27Q212.66,62.51,212.95,63Zm-9.63-6.76,1.17,0,1.17,0h1.22l1.22,0-2.41-5.52Z"/><path class="8faf2a2e-5c5f-4e31-8ed1-90bef82f3e9c" d="M218.69,61a3.58,3.58,0,0,0,.72.73,3.67,3.67,0,0,0,1,.53,3.63,3.63,0,0,0,1.26.21,3.21,3.21,0,0,0,1.29-.25,2.88,2.88,0,0,0,1.6-1.67,3.45,3.45,0,0,0,.22-1.23,2.33,2.33,0,0,0-.51-1.59,4.22,4.22,0,0,0-1.27-1,15,15,0,0,0-1.64-.72,8.45,8.45,0,0,1-1.64-.82A4.34,4.34,0,0,1,218.43,54a3.61,3.61,0,0,1-.51-2,4.13,4.13,0,0,1,.33-1.66,3.64,3.64,0,0,1,.95-1.29,4.49,4.49,0,0,1,1.49-.85,5.89,5.89,0,0,1,2-.3,5.82,5.82,0,0,1,1.8.25,4.5,4.5,0,0,1,1.41.77,4.67,4.67,0,0,0-.33.78,10.69,10.69,0,0,0-.26,1H225a5.54,5.54,0,0,0-.29-.66,2.56,2.56,0,0,0-.5-.66,2.84,2.84,0,0,0-.75-.51,2.42,2.42,0,0,0-1-.21,3.12,3.12,0,0,0-1.12.2,2.71,2.71,0,0,0-.89.55,2.46,2.46,0,0,0-.59.86,2.82,2.82,0,0,0-.21,1.09,2.36,2.36,0,0,0,.51,1.61,4.34,4.34,0,0,0,1.27,1,12.38,12.38,0,0,0,1.64.72,9.32,9.32,0,0,1,1.64.77A4.2,4.2,0,0,1,226,56.57a3.23,3.23,0,0,1,.51,1.91,5,5,0,0,1-.36,1.89,4.44,4.44,0,0,1-1,1.55,4.66,4.66,0,0,1-1.67,1,6.6,6.6,0,0,1-2.25.36A5.62,5.62,0,0,1,219,63a6,6,0,0,1-1.4-.82,5.19,5.19,0,0,0,.27-.9q.08-.4.14-1h.26A4.31,4.31,0,0,0,218.69,61Z"/><path class="8faf2a2e-5c5f-4e31-8ed1-90bef82f3e9c" d="M232.82,61a3.58,3.58,0,0,0,.72.73,3.67,3.67,0,0,0,1,.53,3.63,3.63,0,0,0,1.26.21,3.21,3.21,0,0,0,1.29-.25,2.88,2.88,0,0,0,1.6-1.67,3.44,3.44,0,0,0,.22-1.23,2.33,2.33,0,0,0-.51-1.59,4.22,4.22,0,0,0-1.27-1,15,15,0,0,0-1.64-.72,8.45,8.45,0,0,1-1.64-.82A4.34,4.34,0,0,1,232.56,54a3.61,3.61,0,0,1-.51-2,4.12,4.12,0,0,1,.33-1.66,3.63,3.63,0,0,1,.95-1.29,4.49,4.49,0,0,1,1.49-.85,5.89,5.89,0,0,1,2-.3,5.82,5.82,0,0,1,1.8.25,4.5,4.5,0,0,1,1.41.77,4.68,4.68,0,0,0-.33.78,10.65,10.65,0,0,0-.26,1h-.26a5.49,5.49,0,0,0-.29-.66,2.55,2.55,0,0,0-.5-.66,2.84,2.84,0,0,0-.75-.51,2.42,2.42,0,0,0-1-.21,3.11,3.11,0,0,0-1.12.2,2.71,2.71,0,0,0-.89.55,2.46,2.46,0,0,0-.59.86,2.82,2.82,0,0,0-.21,1.09,2.36,2.36,0,0,0,.51,1.61,4.34,4.34,0,0,0,1.27,1,12.36,12.36,0,0,0,1.64.72,9.34,9.34,0,0,1,1.64.77,4.2,4.2,0,0,1,1.27,1.17,3.24,3.24,0,0,1,.51,1.91,5,5,0,0,1-.36,1.89,4.45,4.45,0,0,1-1,1.55,4.66,4.66,0,0,1-1.67,1,6.59,6.59,0,0,1-2.25.36,5.62,5.62,0,0,1-2.18-.36,6,6,0,0,1-1.4-.82,5.14,5.14,0,0,0,.27-.9q.08-.4.14-1h.26A4.31,4.31,0,0,0,232.82,61Z"/><path class="8faf2a2e-5c5f-4e31-8ed1-90bef82f3e9c" d="M246.9,50.88q-.05-1.39-.12-2.78l1.95.08q1,0,1.95,0t1.93,0l1.93-.08a3.3,3.3,0,0,0,0,1.3l-1.27-.09-1.22-.09-1.4-.08q-.76,0-1.83,0,0,.7-.05,1.33t0,1.43q0,.85,0,1.65t0,1.22l1.72,0,1.39-.05,1.16-.07,1-.08a3.44,3.44,0,0,0-.07.67,3.33,3.33,0,0,0,.07.65c-.38,0-.81-.08-1.31-.11s-1,0-1.5-.05l-1.41,0h-1.05q0,.2,0,.42c0,.15,0,.34,0,.58v2.15q0,1.24,0,2t0,1.22h1.52q.83,0,1.62,0l1.5-.09a9.8,9.8,0,0,0,1.23-.16,1.52,1.52,0,0,0-.05.34c0,.12,0,.24,0,.34a2,2,0,0,0,.06.56q-1,0-1.95,0h-3.94q-1,0-2,0,.07-1.39.12-2.77t.05-2.82V53.71Q247,52.27,246.9,50.88Z"/><path class="8faf2a2e-5c5f-4e31-8ed1-90bef82f3e9c" d="M264,49.23h-1.18l-1.24,0-1.2.08c-.38,0-.73.07-1,.11a2.64,2.64,0,0,0,.11-.7,3,3,0,0,0-.11-.67l2.8.08q1.37,0,2.8,0t2.8,0l2.8-.08a3,3,0,0,0-.11.7,2.56,2.56,0,0,0,.11.67c-.3,0-.65-.08-1-.11l-1.19-.08-1.24,0H266q-.06,2.24-.06,4.5v3.74q0,1.43.05,2.83t.12,2.74c-.33,0-.69,0-1.06,0s-.73,0-1.06,0q.07-1.35.12-2.74t.05-2.83V53.73Q264.11,51.47,264,49.23Z"/><path class="8faf2a2e-5c5f-4e31-8ed1-90bef82f3e9c" d="M290.15,53.81q1.53,2.91,3.21,6l.63-1.18,1-1.77,1.16-2.16,1.26-2.36L298.64,50l1.17-2.15h.28q.24,2.09.45,4t.42,3.83q.22,1.88.43,3.72t.48,3.64a3.06,3.06,0,0,0-.51,0h-1a3.06,3.06,0,0,0-.51,0q-.24-2.89-.48-5.61t-.59-5.54h0q-1.5,2.74-2.94,5.44T293,63h-.2q-1.3-2.74-2.73-5.49t-2.86-5.62h0q-.15,1.35-.34,2.92t-.34,3.11q-.15,1.53-.26,2.89T286.17,63a6.75,6.75,0,0,0-1.52,0q.28-1.76.59-3.72t.59-3.93q.28-2,.52-3.9t.41-3.66h.37Q288.62,50.9,290.15,53.81Z"/><path class="8faf2a2e-5c5f-4e31-8ed1-90bef82f3e9c" d="M320.31,63a4,4,0,0,0-.58,0h-1.15a4,4,0,0,0-.58,0q-.15-.5-.41-1.21T317,60.34l-.64-1.56q-.33-.79-.61-1.51l-1.41,0h-2.76l-1.33,0Q309.57,59,309,60.5T308.16,63a7.54,7.54,0,0,0-1.61,0q1.76-3.8,3.43-7.56t3.37-7.65h.41l1.13,2.73,1.24,3,1.26,3q.63,1.48,1.19,2.75l1,2.27Q320,62.51,320.31,63Zm-9.63-6.76,1.17,0,1.17,0h1.22l1.22,0-2.41-5.52Z"/><path class="8faf2a2e-5c5f-4e31-8ed1-90bef82f3e9c" d="M333,57.39q-2.83-3-5.65-6,0,.61,0,1.63t0,2.78c0,.3,0,.68,0,1.13s0,.92,0,1.41,0,1,0,1.5,0,1,0,1.41,0,.82,0,1.14,0,.55,0,.66a6.09,6.09,0,0,0-.76,0,6.85,6.85,0,0,0-.8,0c0-.14.06-.41.1-.8s.07-.86.1-1.4.06-1.13.1-1.77.07-1.28.09-1.91,0-1.26.05-1.87,0-1.15,0-1.63q0-2.09,0-3.59t-.05-2.24h.35l2.84,3.08,3,3.24,2.83,3q1.34,1.42,2.34,2.42v-3q0-2.28,0-4.45t-.14-4.07a3.13,3.13,0,0,0,.74.11,3,3,0,0,0,.7-.11q0,.48-.1,1.43t-.11,2q-.05,1.09-.1,2.13t0,1.67v1.3q0,.74,0,1.54t0,1.62q0,.81,0,1.52c0,.47,0,.88,0,1.23v.72h-.3Q335.81,60.42,333,57.39Z"/><path class="8faf2a2e-5c5f-4e31-8ed1-90bef82f3e9c" d="M357.84,63a4,4,0,0,0-.58,0h-1.15a4,4,0,0,0-.58,0q-.15-.5-.41-1.21c-.17-.47-.37-1-.58-1.48l-.64-1.56-.61-1.51-1.41,0h-2.76l-1.33,0q-.7,1.69-1.26,3.23T345.7,63a7.54,7.54,0,0,0-1.61,0q1.76-3.8,3.43-7.56t3.37-7.65h.41l1.13,2.73,1.24,3,1.26,3,1.18,2.75,1,2.27Q357.56,62.51,357.84,63Zm-9.63-6.76,1.17,0,1.17,0h1.22l1.22,0-2.41-5.52Z"/><path class="8faf2a2e-5c5f-4e31-8ed1-90bef82f3e9c" d="M374.26,50a6,6,0,0,0-1.09-.68,6.9,6.9,0,0,0-1.33-.48,6.31,6.31,0,0,0-1.55-.18,7.45,7.45,0,0,0-2.51.41,5.35,5.35,0,0,0-2,1.27,6,6,0,0,0-1.35,2.17,9.94,9.94,0,0,0-.05,6,5.79,5.79,0,0,0,1.27,2.16,5.63,5.63,0,0,0,2,1.36,7.34,7.34,0,0,0,2.73.48q.46,0,1,0c.33,0,.66-.07,1-.13a7,7,0,0,0,.87-.22,3.16,3.16,0,0,0,.69-.3q0-.65,0-1.3t0-1.33c0-.51,0-1,0-1.52s0-1-.08-1.46a5.33,5.33,0,0,0,1,.11l.48,0a2.35,2.35,0,0,0,.46-.09q0,.5-.06,1.58t0,2.84q0,.44,0,.88c0,.3,0,.59,0,.88q-.46.17-1.14.36a13.19,13.19,0,0,1-1.46.3l-1.54.22a11.18,11.18,0,0,1-1.4.1,12.1,12.1,0,0,1-3.49-.47,6.82,6.82,0,0,1-2.64-1.45A6.46,6.46,0,0,1,362.39,59a9,9,0,0,1-.59-3.37,8.41,8.41,0,0,1,.61-3.29,6.79,6.79,0,0,1,1.72-2.45,7.44,7.44,0,0,1,2.68-1.52,11.05,11.05,0,0,1,3.49-.52,14.33,14.33,0,0,1,2,.12,10.7,10.7,0,0,1,1.52.31,10.07,10.07,0,0,1,1.16.41l.89.41a3.72,3.72,0,0,0-.32.78,5,5,0,0,0-.18.89h-.26A5.77,5.77,0,0,0,374.26,50Z"/><path class="8faf2a2e-5c5f-4e31-8ed1-90bef82f3e9c" d="M382.74,50.88q-.05-1.39-.12-2.78l1.95.08q1,0,1.95,0t1.93,0l1.93-.08a3.28,3.28,0,0,0,0,1.3l-1.27-.09-1.22-.09-1.4-.08q-.76,0-1.83,0,0,.7-.05,1.33t0,1.43q0,.85,0,1.65t0,1.22l1.72,0,1.39-.05,1.16-.07,1-.08a3.47,3.47,0,0,0-.07.67,3.36,3.36,0,0,0,.07.65c-.38,0-.82-.08-1.32-.11s-1,0-1.5-.05l-1.41,0H384.6q0,.2,0,.42c0,.15,0,.34,0,.58v2.15q0,1.24,0,2t0,1.22h1.52q.83,0,1.62,0l1.5-.09a9.79,9.79,0,0,0,1.23-.16,1.52,1.52,0,0,0-.05.34c0,.12,0,.24,0,.34a2,2,0,0,0,.07.56q-1,0-1.95,0H384.6q-1,0-2,0,.07-1.39.12-2.77t.05-2.82V53.71Q382.79,52.27,382.74,50.88Z"/><path class="8faf2a2e-5c5f-4e31-8ed1-90bef82f3e9c" d="M401.34,53.81q1.53,2.91,3.21,6l.63-1.18,1-1.77,1.16-2.16,1.26-2.36L409.83,50,411,47.81h.28q.24,2.09.45,4t.42,3.83q.22,1.88.43,3.72t.48,3.64a3.06,3.06,0,0,0-.51,0h-1a3.06,3.06,0,0,0-.51,0q-.24-2.89-.48-5.61T410,51.88h0q-1.5,2.74-2.94,5.44T404.22,63H404q-1.3-2.74-2.73-5.49t-2.86-5.62h0q-.15,1.35-.34,2.92t-.34,3.11q-.15,1.53-.26,2.89T397.36,63a6.75,6.75,0,0,0-1.52,0q.28-1.76.59-3.72t.59-3.93q.28-2,.52-3.9t.41-3.66h.37Q399.81,50.9,401.34,53.81Z"/><path class="8faf2a2e-5c5f-4e31-8ed1-90bef82f3e9c" d="M419.45,50.88q-.06-1.39-.12-2.78l1.95.08q1,0,1.94,0t1.93,0l1.93-.08a3.33,3.33,0,0,0,0,1.3l-1.27-.09-1.22-.09-1.4-.08q-.76,0-1.83,0,0,.7-.05,1.33t0,1.43q0,.85,0,1.65t0,1.22l1.72,0,1.39-.05,1.16-.07,1-.08a3.48,3.48,0,0,0-.06.67,3.36,3.36,0,0,0,.06.65c-.38,0-.81-.08-1.31-.11s-1,0-1.5-.05l-1.41,0h-1.05c0,.13,0,.27,0,.42s0,.34,0,.58v2.15q0,1.24,0,2t0,1.22h1.52q.83,0,1.62,0L426,62a9.81,9.81,0,0,0,1.23-.16,1.52,1.52,0,0,0-.05.34c0,.12,0,.24,0,.34a2,2,0,0,0,.07.56q-1,0-1.95,0h-3.95q-1,0-2,0,.07-1.39.12-2.77t.05-2.82V53.71Q419.5,52.27,419.45,50.88Z"/><path class="8faf2a2e-5c5f-4e31-8ed1-90bef82f3e9c" d="M440.54,57.39q-2.82-3-5.65-6,0,.61,0,1.63t0,2.78c0,.3,0,.68,0,1.13s0,.92,0,1.41,0,1,0,1.5,0,1,0,1.41,0,.82,0,1.14,0,.55,0,.66a6.12,6.12,0,0,0-.76,0,6.86,6.86,0,0,0-.8,0c0-.14.06-.41.1-.8s.07-.86.1-1.4.06-1.13.1-1.77.07-1.28.09-1.91,0-1.26.05-1.87,0-1.15,0-1.63q0-2.09,0-3.59t-.05-2.24h.35L437,50.89l3,3.24,2.83,3q1.34,1.42,2.34,2.42v-3q0-2.28,0-4.45T445,48.1a3.14,3.14,0,0,0,.74.11,3,3,0,0,0,.7-.11q0,.48-.1,1.43t-.11,2q-.06,1.09-.1,2.13t0,1.67v1.3q0,.74,0,1.54t0,1.62q0,.81,0,1.52t0,1.23v.72h-.3Q443.37,60.42,440.54,57.39Z"/><path class="8faf2a2e-5c5f-4e31-8ed1-90bef82f3e9c" d="M456.75,49.23h-1.18l-1.24,0-1.2.08q-.58,0-1,.11a2.65,2.65,0,0,0,.11-.7,3,3,0,0,0-.11-.67l2.8.08q1.37,0,2.8,0t2.8,0l2.8-.08a3,3,0,0,0-.11.7,2.59,2.59,0,0,0,.11.67q-.46-.06-1-.11l-1.2-.08-1.24,0h-1.18q-.06,2.24-.07,4.5v3.74q0,1.43.05,2.83t.12,2.74c-.33,0-.69,0-1.06,0s-.73,0-1.06,0q.06-1.35.12-2.74t.05-2.83V53.73Q456.82,51.47,456.75,49.23Z"/><path class="b49cb5c1-3936-4117-83b5-793b5ef1e562" d="M519.22,44.7V44l1.18-.1c1.28-.13,1.28-.29,1.28-4.3V33.8l-33.23,0v33.8h1.08c.56-.39.88-1.11,1.51-2.65l8.5-20.68c.33-.82.65-1.63,1-2.41l1.19-.41,9.11,23.67a5.45,5.45,0,0,0,1.37,2.46h10.93V44.7Z"/><path class="b49cb5c1-3936-4117-83b5-793b5ef1e562" d="M507.52,67.06a3.38,3.38,0,0,0-.25-.86l-2.86-7.73a24.31,24.31,0,0,0-4.54-.41,25.42,25.42,0,0,0-4.29.41l-2.09,5.68a13.28,13.28,0,0,0-.82,2.74.84.84,0,0,0,.3.73l14.09,0C507.34,67.48,507.52,67.31,507.52,67.06Z"/><path class="b49cb5c1-3936-4117-83b5-793b5ef1e562" d="M500,47l-3.88,9.89c1.23-.08,2.49-.2,3.72-.2a31.62,31.62,0,0,1,3.92.2Z"/><path class="8faf2a2e-5c5f-4e31-8ed1-90bef82f3e9c" d="M520.42,23.85l-1.18-.1V23h6.47V0H503.56a10.53,10.53,0,0,1,3.31,1.05A24.19,24.19,0,0,1,507.4,6l-.89.2c-.33-1.31-.75-5.32-6.37-5.32-5.39,0-8.77,3.55-8.77,9.69,0,5.62,2.69,10.8,8.67,10.8,5.45,0,6.27-3.32,7.29-5.94l.89.2a18.52,18.52,0,0,1-1.35,5.58,18.12,18.12,0,0,1-6.76,1.25c-5.14,0-10-2-11.63-7.25V33.81H521.7V28.15C521.7,24.15,521.7,24,520.42,23.85Z"/><path class="8faf2a2e-5c5f-4e31-8ed1-90bef82f3e9c" d="M538.77,61a1.71,1.71,0,0,0,.75-.29c.24-.24.41-1.79.55-4l.39-6.09c.1-1.64.27-4.25.27-4.9l.65-.22c.72,1.26,6.23,11.67,7,13,.77-1.23,6.18-11.54,6.64-12.78l.63-.22c0,.19.17,2.9.34,6.09l.22,4.18a27.48,27.48,0,0,0,.46,4.76,1.23,1.23,0,0,0,.92.46l.26.05V33.84H525.71V23.89c-1,.15-1,.63-1,4.26V39.58c0,4,0,4.17,1.28,4.3l1.18.1v.72h-4.94V67.6h35.55V61.71H552.1v-.53L553,61c1-.12,1.14-.51,1.14-1.62,0-2.68-.41-7.75-.41-9.3h0c-.41,1.06-2.87,5.8-5.26,10.5-.12.24-.22.53-.34.77l-.68.31c-.53-1.11-3.6-7-5.26-10.19a14.71,14.71,0,0,1-.65-1.4h0c-.07,1.38-.41,8.21-.41,9,0,1.42,0,1.83,1.13,2l1,.14v.53h-5v-.53Z"/><path class="b49cb5c1-3936-4117-83b5-793b5ef1e562" d="M550,0V.85L548.41,1c-1.75.18-1.75.4-1.75,5.88V22.49c0,5.48,0,5.7,1.75,5.88l1.62.13v1H539.12v-1l1.62-.13c1.75-.18,1.75-.4,1.75-5.88V6.86c0-5.48,0-5.7-1.75-5.88L539.12.85V0h-16V23h4.07v.72l-1.18.1c-1.28.13-1.28.3-1.28,4.3V33.8H557.8V0Z"/></svg>