<?xml version="1.0" encoding="UTF-8"?>
<!-- Generator: Adobe Illustrator 21.1.0, SVG Export Plug-In . SVG Version: 6.00 Build 0)  -->
<svg version="1.1" id="Layer_1" xmlns="http://www.w3.org/2000/svg" xmlns:xlink="http://www.w3.org/1999/xlink" x="0px" y="0px" viewBox="0 0 221.9 46.2" style="enable-background:new 0 0 221.9 46.2;" xml:space="preserve">
<style type="text/css">
	.st0{fill:#00395A;}
	.st1{fill:none;}
</style>
<g>
	<path class="st0" d="M8.5,5.2C7.7,5.9,7,6.6,6.3,7.3h4.5C10,6.6,9.3,5.9,8.5,5.2z"/>
	<path class="st0" d="M11.2,7.7H5.9C4.8,9,3.8,10.3,3,11.8h11.2C13.4,10.3,12.3,9,11.2,7.7z"/>
	<path class="st0" d="M16.1,15.6c-0.2-0.6-0.5-1.2-0.7-1.8l0,0c-0.3-0.6-0.5-1.1-0.8-1.6H2.7c-0.7,1.3-1.3,2.6-1.7,4h12.9l0.4-0.6   H16.1z"/>
	<path class="st0" d="M17.2,20.1c-0.1-0.9-0.3-1.9-0.6-2.8h-3.3l0.4-0.7H0.9c-0.4,1.3-0.6,2.7-0.8,4h11.2l0.4-0.6H17.2z"/>
	<path class="st0" d="M17.4,23.4c0-0.5,0-1.1-0.1-1.6h-6.7l0.4-0.6h-11C0,21.8,0,22.5,0,23.1c0,0.7,0,1.4,0.1,2.1h8.6l0.4-0.6h8.3   C17.4,24.2,17.4,23.8,17.4,23.4z"/>
	<path class="st0" d="M17.3,26.3H8.1l0.4-0.6H0.1c0.2,1.4,0.4,2.7,0.8,4h5.1L6.4,29h10.3C17,28.1,17.1,27.2,17.3,26.3z"/>
	<path class="st0" d="M16.2,30.8H5.4l0.4-0.7H1.1c0.4,1.4,1,2.8,1.7,4h0.7l0.4-0.6h11.2C15.5,32.6,15.9,31.7,16.2,30.8z"/>
	<path class="st0" d="M3.5,35.2c0.6,1,1.3,1.9,2,2.8h6.7c0.7-0.9,1.4-1.8,2-2.8H3.5z"/>
	<path class="st0" d="M10.7,39.6H7c0.6,0.6,1.2,1.1,1.8,1.6C9.5,40.7,10.1,40.2,10.7,39.6z"/>
	<path class="st0" d="M15.3,33.1h15.6c0.3-0.6,0.6-1.3,0.8-1.9H16.1C15.8,31.8,15.6,32.5,15.3,33.1z"/>
	<path class="st0" d="M12.5,37.6H28c0.5-0.6,1-1.3,1.4-1.9H13.9C13.5,36.3,13,37,12.5,37.6z"/>
	<path class="st0" d="M8.8,41.3c0.3,0.3,0.7,0.5,1.1,0.8h13.3c0.9-0.6,1.7-1.2,2.4-1.9H10.2C9.7,40.5,9.3,40.9,8.8,41.3z"/>
	<path class="st0" d="M16.4,45.2c0.7-0.2,1.3-0.4,2-0.7h-3.9C15.2,44.8,15.8,45,16.4,45.2z"/>
	<path class="st0" d="M31.6,15.2c-0.2-0.6-0.5-1.2-0.8-1.8l-0.1-0.2H15.7l0.4-0.7h-1.4c0.2,0.4,0.5,0.9,0.7,1.3l0,0   c0.2,0.4,0.4,0.9,0.6,1.4H31.6z"/>
	<path class="st0" d="M24.2,1.8l-0.9-1.5l0,0l0,0L23.1,0c0,0,0,0,0,0c-3.8,0-7.4,0.9-10.5,2.5H22l0.4-0.7H24.2z"/>
	<path class="st0" d="M26.7,6.2l-1.1-1.9h-4.7l0.4-0.7H10.7C9.9,4.1,9.2,4.7,8.5,5.2c0.7,0.5,1.4,1.1,2,1.7h8.9l0.4-0.7H26.7z"/>
	<path class="st0" d="M29.3,10.7l-1.1-1.9h-9.9L18.7,8h-7.3c1,1,1.8,2.2,2.5,3.4h2.7l0.4-0.7H29.3z"/>
	<path class="st0" d="M23.8,19.7h9.1c-0.1-0.7-0.2-1.3-0.4-1.9H16.7c0.2,0.6,0.3,1.3,0.4,1.9h5.5l-0.3,0.7h1.8l-0.8-1.9"/>
	<g>
		<path class="st0" d="M33.1,22.2h-8.2l0.9,1.9h7.3c0-0.3,0-0.6,0-0.9C33.1,22.9,33.1,22.5,33.1,22.2z"/>
		<path class="st0" d="M21.8,21.5l-0.3,0.7h-4.1c0,0.4,0,0.8,0,1.2c0,0.3,0,0.5,0,0.8h3.2l-0.3,0.7h5.8l-1.5-3.4H21.8z"/>
	</g>
	<path class="st0" d="M32.8,26.7h-5.9L26.6,26h-6.8l-0.3,0.7h-2.2c-0.1,0.7-0.2,1.3-0.4,1.9h1.7l-0.3,0.7h9.9l-0.3-0.7h4.7   C32.6,28,32.7,27.3,32.8,26.7z"/>
	<path class="st0" d="M23.1,0l1.3,2.3h8.8C30.2,0.8,26.8,0,23.1,0z"/>
	<path class="st0" d="M35.8,3.8H25.3l1.7,3h12.5C38.4,5.7,37.1,4.7,35.8,3.8z"/>
	<path class="st0" d="M40.8,8.2h-13l1,1.7c0.3,0.4,0.5,0.8,0.8,1.2H43C42.3,10.2,41.6,9.2,40.8,8.2z"/>
	<path class="st0" d="M43.8,12.7H30.5c0.1,0.2,0.2,0.5,0.4,0.7l1.3,2.3H45C44.7,14.7,44.3,13.7,43.8,12.7z"/>
	<path class="st0" d="M46.1,20.2c-0.1-1-0.3-2-0.6-3H33l0.5,0.8h-1c0.1,0.5,0.2,0.9,0.3,1.4h1.5l0.5,0.8H46.1z"/>
	<path class="st0" d="M46.2,21.7H35.6l0.5,0.8h-2.9c0,0.2,0,0.5,0,0.7c0,0.2,0,0.4,0,0.7h3.7l0.5,0.8h8.9c0-0.5,0.1-1,0.1-1.5   C46.3,22.6,46.2,22.2,46.2,21.7z"/>
	<path class="st0" d="M38.1,26.2l0.5,0.8h-5.8c-0.1,0.5-0.2,0.9-0.3,1.4h6.9l0.5,0.8h5.6c0.3-1,0.5-2,0.6-3H38.1z"/>
	<path class="st0" d="M40.7,30.6l0.5,0.8h-9.6c-0.2,0.5-0.4,0.9-0.6,1.4h11l0.5,0.8h1.3c0.5-1,0.9-1.9,1.3-3H40.7z"/>
	<path class="st0" d="M28.3,37.3h13.1c0.3-0.4,0.7-0.9,1-1.4H29.3C28.9,36.4,28.6,36.8,28.3,37.3z"/>
	<path class="st0" d="M23.6,41.8h13.2c0.6-0.4,1.2-0.9,1.7-1.4H25.3C24.8,40.9,24.2,41.3,23.6,41.8z"/>
	<path class="st0" d="M16.4,45.2c2.1,0.6,4.4,1,6.7,1c2.8,0,5.4-0.5,7.9-1.4H17.6C17.2,45,16.8,45.1,16.4,45.2z"/>
</g>
<g>
	<path class="st0" d="M80.4,18H69.1l5.7-14.2L80.4,18z M60.5,28.6h4.3l2.9-7.2h14l2.9,7.2h4.5L77,0h-4.3L60.5,28.6z"/>
	<path class="st0" d="M93.1,24.5c1.5,1,3.7,1.5,4.8,1.5c1.8,0,4-0.7,4-3c0-3.8-9.1-3.5-9.1-9.3c0-4.3,3.2-6.4,7.4-6.4   c1.8,0,3.3,0.4,4.8,0.8l-0.3,3.4c-0.9-0.5-3.1-1.1-4.1-1.1c-2,0-3.7,0.8-3.7,2.5c0,4.3,9.1,3,9.1,9.7c0,4.5-3.6,6.5-7.3,6.5   c-2,0-4-0.2-5.7-1.1L93.1,24.5z"/>
	<path class="st0" d="M111.3,24.5c1.5,1,3.7,1.5,4.8,1.5c1.8,0,4-0.7,4-3c0-3.8-9.1-3.5-9.1-9.3c0-4.3,3.2-6.4,7.4-6.4   c1.8,0,3.3,0.4,4.8,0.8l-0.3,3.4c-0.9-0.5-3.2-1.1-4.1-1.1c-2,0-3.7,0.8-3.7,2.5c0,4.3,9.1,3,9.1,9.7c0,4.5-3.6,6.5-7.3,6.5   c-2,0-4-0.2-5.7-1.1L111.3,24.5z"/>
	<path class="st0" d="M143,20.5c0,3.1-2,5.5-5.8,5.5c-1.8,0-3.9-1.2-3.9-3.4c0-3.7,5.2-4,7.3-4c0.8,0,1.6,0.1,2.5,0.1V20.5z    M131.8,12.4c1.6-1.3,3.9-2.1,6.1-2.1c3.9,0,5.2,1.8,5.2,5.4c-1.5-0.1-2.6-0.1-4.1-0.1c-4,0-9.7,1.6-9.7,6.9c0,4.6,3.1,6.5,7.7,6.5   c3.5,0,5.6-1.9,6.5-3.2h0.1v2.7h3.6c-0.1-0.6-0.2-1.7-0.2-4.1v-8.6c0-5.7-2.4-8.6-8.4-8.6c-2.7,0-5,0.8-6.9,2L131.8,12.4z"/>
	<path class="st0" d="M154,7.7h3.7V11h0.1c1.1-2.4,3.9-3.8,6.8-3.8c5.4,0,7.8,3.4,7.8,9v12.4h-3.9V17.8c0-4.9-1.1-7.2-4.4-7.4   c-4.4,0-6.3,3.5-6.3,8.6v9.7H154V7.7z"/>
	<path class="st0" d="M189.8,11.2h-5.5v11.4c0,2.4,1.5,3.7,3.2,3.7c1.2,0,2-0.4,2.6-0.7v3.3c-0.9,0.2-2,0.6-3.3,0.6   c-4,0-6.4-1.9-6.4-6.1V11.2h-4.7V8.1h4.7V3.2l3.9-1.2v6.1h5.5V11.2z"/>
	<path class="st0" d="M197.3,16.1c0.3-2.7,1.8-5.8,5.6-5.8c3.3,0,5.2,2.6,5.2,5.8H197.3z M210.6,23.9c-0.9,0.8-3.9,2.1-6.4,2.1   c-3.6,0-6.9-2.8-6.9-7h14.9c0-6.7-2.3-11.8-9.2-11.8c-5.9,0-9.8,4.4-9.8,10.5c0,6.8,3.4,11.3,10.8,11.3c3.4,0,5.1-0.8,6.6-1.4V23.9   z"/>
</g>
<g>
	<g>
		<path class="st0" d="M60.5,38.4h1.6l1.4,6.1h0l1.3-6.1H67l1.4,6.1h0l1.4-6.1h1.5l-2,7.7h-2L66,40h0l-1.4,6.1h-2L60.5,38.4z"/>
		<path class="st0" d="M73.9,38.4h4.5v1.2h-3v1.9h2.7v1.2h-2.7v2.2h3v1.2h-4.6V38.4z"/>
		<path class="st0" d="M83.8,38.4h1.7l3,7.7h-1.7l-0.7-1.8h-3.1l-0.7,1.8h-1.6L83.8,38.4z M84.7,40L84.7,40l-1.1,3.2h2.2L84.7,40z"/>
		<path class="st0" d="M91.2,38.4h1.5v6.5h3v1.2h-4.5V38.4z"/>
		<path class="st0" d="M99.7,39.6h-2.2v-1.2h5.9v1.2h-2.2v6.5h-1.5V39.6z"/>
		<path class="st0" d="M106,38.4h1.5v3.1h3.1v-3.1h1.5v7.7h-1.5v-3.4h-3.1v3.4H106V38.4z"/>
		<path class="st0" d="M120.2,38.4h2.5l1.8,5.8h0l1.8-5.8h2.5v7.7h-1.5v-6.3h0l-2.1,6.3h-1.5l-2.1-6.3l0,0v6.3h-1.5V38.4z"/>
		<path class="st0" d="M134.3,38.4h1.7l3,7.7h-1.7l-0.7-1.8h-3.1l-0.7,1.8h-1.6L134.3,38.4z M135.2,40L135.2,40l-1.1,3.2h2.2    L135.2,40z"/>
		<path class="st0" d="M141.6,38.4h1.9l2.9,5.7h0v-5.7h1.5v7.7H146l-2.9-5.7h0v5.7h-1.5V38.4z"/>
		<path class="st0" d="M153.4,38.4h1.7l3,7.7h-1.7l-0.7-1.8h-3.1l-0.7,1.8h-1.6L153.4,38.4z M154.3,40L154.3,40l-1.1,3.2h2.2    L154.3,40z"/>
		<path class="st0" d="M166.7,39.9c-0.6-0.3-1.4-0.4-2-0.4c-1.8,0-2.8,1.2-2.8,2.8c0,1.6,1,2.7,2.6,2.7c0.4,0,0.7,0,1-0.1v-2H164    v-1.2h3.1v4.1c-0.8,0.2-1.7,0.4-2.5,0.4c-2.5,0-4.2-1.2-4.2-3.8c0-2.6,1.6-4.1,4.2-4.1c0.9,0,1.6,0.1,2.3,0.3L166.7,39.9z"/>
		<path class="st0" d="M170.3,38.4h4.5v1.2h-3v1.9h2.7v1.2h-2.7v2.2h3v1.2h-4.6V38.4z"/>
		<path class="st0" d="M178,38.4h2.5l1.8,5.8h0l1.8-5.8h2.5v7.7h-1.5v-6.3h0l-2.1,6.3h-1.5l-2.1-6.3l0,0v6.3H178V38.4z"/>
		<path class="st0" d="M190,38.4h4.5v1.2h-3v1.9h2.7v1.2h-2.7v2.2h3v1.2H190V38.4z"/>
		<path class="st0" d="M197.6,38.4h1.9l2.9,5.7h0v-5.7h1.5v7.7H202l-2.9-5.7h0v5.7h-1.5V38.4z"/>
		<path class="st0" d="M208.6,39.6h-2.2v-1.2h5.9v1.2h-2.2v6.5h-1.5V39.6z"/>
	</g>
</g>
<g>
	<path class="st0" d="M214.7,10.8c0-2,1.6-3.6,3.6-3.6c2,0,3.6,1.6,3.6,3.6c0,2-1.6,3.6-3.6,3.6C216.3,14.4,214.7,12.8,214.7,10.8z    M221,10.8c0-1.7-1.2-2.9-2.7-2.9c-1.5,0-2.7,1.2-2.7,2.9c0,1.7,1.2,2.9,2.7,2.9C219.8,13.7,221,12.5,221,10.8z M216.9,8.7h1.5   c1,0,1.5,0.3,1.5,1.2c0,0.7-0.4,1-1.1,1.1l1.1,1.8h-0.8l-1.1-1.8h-0.5v1.8h-0.8V8.7z M217.6,10.5h0.7c0.4,0,0.8-0.1,0.8-0.6   c0-0.5-0.4-0.6-0.8-0.6h-0.7V10.5z"/>
</g>
<rect x="212.1" y="7.2" class="st1" width="2.5" height="7.2"/>
</svg>