<svg id="Layer_1" data-name="Layer 1" xmlns="http://www.w3.org/2000/svg" width="220.33" height="234" viewBox="0 0 220.33 234"><defs><style>.cls-1,.cls-2{fill:#fff;}.cls-1{fill-rule:evenodd;}.cls-3{fill:#00adee;}</style></defs><title>SickKids GetLoud Logo</title><path d="M469,260.66,257,228.34,248.64,227,287.8,421c-.21.43-.42.86-.61,1.3a27.56,27.56,0,0,0,0,21.72c.35.79.73,1.56,1.13,2.31H276.78a2.16,2.16,0,0,1-2.15-2.15V408.85a2.15,2.15,0,0,0-2.15-2.15H262.07a2.15,2.15,0,0,0-2.15,2.15v48.37a2.15,2.15,0,0,0,2.15,2.15h38.34a2.11,2.11,0,0,0,1.54-.66l.26.12a29,29,0,0,0,22,0,28.33,28.33,0,0,0,9-5.94,27.79,27.79,0,0,0,5.32-7.3c.12.44.25.87.41,1.29a19.71,19.71,0,0,0,3.36,5.77,21.4,21.4,0,0,0,5.1,4.44,25.1,25.1,0,0,0,6.36,2.89,23,23,0,0,0,3.05.75,17.89,17.89,0,0,0,3.11.27,18.61,18.61,0,0,0,3.15-.27,23.05,23.05,0,0,0,3.08-.75,25.1,25.1,0,0,0,6.36-2.89,21.8,21.8,0,0,0,5.1-4.44,19.79,19.79,0,0,0,1.71-2.4v7a2.15,2.15,0,0,0,2.15,2.15h21.6a26.27,26.27,0,0,0,10.4-2.07,27.25,27.25,0,0,0,8.48-5.63,26.2,26.2,0,0,0,5.72-8.39,26.16,26.16,0,0,0,0-20.49A26.2,26.2,0,0,0,422,414.4a27.25,27.25,0,0,0-8.48-5.63,26.27,26.27,0,0,0-10.4-2.07h-21.6a2.11,2.11,0,0,1-1.46,0H369.53a2.15,2.15,0,0,0-2.15,2.15v30.36a6.17,6.17,0,0,1-.62,2.75,6.88,6.88,0,0,1-1.64,2.17,7.53,7.53,0,0,1-2.36,1.43,7.9,7.9,0,0,1-2.84.51,7.68,7.68,0,0,1-2.77-.51,7.53,7.53,0,0,1-2.36-1.43,6.91,6.91,0,0,1-1.65-2.17,6.3,6.3,0,0,1-.61-2.75V408.85a2.15,2.15,0,0,0-2.15-2.15H339.9a2.15,2.15,0,0,0-2.15,2.15v10.46a27.86,27.86,0,0,0-4.54-5.86,28.75,28.75,0,0,0-9-6,28.48,28.48,0,0,0-22,0,29,29,0,0,0-8.06,5.13l-3.32-16.44a29.07,29.07,0,0,0,4.92,2.68A28,28,0,0,0,306.8,401a28.37,28.37,0,0,0,13-3.12v1.49h47.27a2.15,2.15,0,0,0,2.15-2.15v-8.19a2.15,2.15,0,0,0-2.15-2.15H341.79a1.11,1.11,0,0,1-1.1-1.11v-5.32a1.1,1.1,0,0,1,1.1-1.1h23.64a2.15,2.15,0,0,0,2.15-2.15V369a2.15,2.15,0,0,0-2.15-2.15H341.79a1.11,1.11,0,0,1-1.1-1.11v-5.32a1.1,1.1,0,0,1,1.1-1.1h37a2.15,2.15,0,0,1,2.15,2.15v35.82a2.15,2.15,0,0,0,2.15,2.15h10.14a2.15,2.15,0,0,0,2.15-2.15V361.42a2.15,2.15,0,0,1,2.15-2.15H410l1-.95v-9.45a2.15,2.15,0,0,0-2.15-2.15H367.61l-.27,0a2.23,2.23,0,0,0-.27,0H329a2.15,2.15,0,0,0-2.15,2.15v4.7a29,29,0,0,0-8.05-5.66,28.23,28.23,0,0,0-22.93-.48,27.89,27.89,0,0,0-12.7,10.85l-3.67-18.16L469,309.56v-4l-41.41-20.18L469,265.2Zm-75.68,161a2.15,2.15,0,0,1,2.15-2.15h6a13.76,13.76,0,0,1,5.38,1.05,13.6,13.6,0,0,1,4.34,2.88,13.77,13.77,0,0,1,2.91,4.31,13.58,13.58,0,0,1,0,10.52,13.37,13.37,0,0,1-7.25,7.2,13.76,13.76,0,0,1-5.38,1.05h-6a2.15,2.15,0,0,1-2.15-2.15ZM293.9,367.73a14.24,14.24,0,0,1,7.39-7.74,13.14,13.14,0,0,1,5.58-1.19,13.41,13.41,0,0,1,5.44,1.12,15,15,0,0,1,3.46,2.12,2.2,2.2,0,0,0,2.6.2l8.12-5.36a1.85,1.85,0,0,0,.37-.31v13.09H310.73a2.15,2.15,0,0,0-2.15,2.15v8.39a2.15,2.15,0,0,0,2.15,2.15H318a13.86,13.86,0,0,1-11,5.43,13,13,0,0,1-5.58-1.19,14.86,14.86,0,0,1-4.48-3.15,14,14,0,0,1-3-4.62,14.74,14.74,0,0,1-1.06-5.56A14.48,14.48,0,0,1,293.9,367.73Zm6.43,59.91a14.78,14.78,0,0,1,2.91-4.58,14.1,14.1,0,0,1,4.41-3.16,13.68,13.68,0,0,1,11.16,0,14.1,14.1,0,0,1,4.41,3.16,14.78,14.78,0,0,1,2.91,4.58,14.88,14.88,0,0,1,0,11,14.69,14.69,0,0,1-2.91,4.61,14.1,14.1,0,0,1-4.41,3.16,13.68,13.68,0,0,1-11.16,0,14.1,14.1,0,0,1-4.41-3.16,14.92,14.92,0,0,1-4-10.11A14.48,14.48,0,0,1,300.33,427.64Z" transform="translate(-248.64 -227)"/><path class="cls-1" d="M315.28,289.18c0,1.06,0,2.92,1.49,2.92a1.65,1.65,0,0,0,1.54-1.83c0-3.38-6.27-4.15-6.27-9.75,0-2.85,1.54-5.16,4.46-5.16,3.11,0,4.3,2.37,4.38,5.77H317.8c0-1.06,0-2.84-1.38-2.84-.82,0-1.3.69-1.3,1.72,0,3.22,6.27,4.31,6.27,9.8,0,2.9-1.65,5.21-4.76,5.21-3.69,0-4.43-3.24-4.43-5.84Z" transform="translate(-248.64 -227)"/><rect class="cls-2" x="73.65" y="48.74" width="3.08" height="3.08"/><rect class="cls-2" x="73.65" y="54.31" width="3.08" height="13.33"/><path class="cls-1" d="M331.64,286.17c-.05-2.07-.24-2.84-.9-2.84s-.85.8-.85,5c0,3.34.26,4.14,1,4.14.93,0,1-1.54,1.17-2.92l2.36.08c0,2.47-.55,5.18-3.69,5.23-2.42,0-4.28-1.83-4.28-6.88s1.86-6.88,4.28-6.88c3,0,3.48,2.34,3.69,5Z" transform="translate(-248.64 -227)"/><polygon class="cls-1" points="86.8 48.74 89.88 48.74 89.88 58.96 89.94 58.96 92.3 54.31 94.85 54.31 92.73 58.35 95.22 67.65 92.14 67.65 90.63 61.65 90.6 61.65 89.88 63.11 89.88 67.65 86.8 67.65 86.8 48.74"/><polygon class="cls-1" points="96.47 48.74 99.93 48.74 99.93 56.65 99.98 56.65 102.85 48.74 105.93 48.74 103.35 55.08 106.46 67.65 103.14 67.65 101.23 59.17 101.17 59.17 99.93 62.15 99.93 67.65 96.47 67.65 96.47 48.74"/><rect class="cls-2" x="107.34" y="48.74" width="3.08" height="3.08"/><rect class="cls-2" x="107.34" y="54.31" width="3.08" height="13.33"/><path class="cls-1" d="M365.67,275.74v6.32h-.05a2.39,2.39,0,0,0-1.94-1c-2.26,0-3.3,2.44-3.3,6.85s.8,6.91,3,6.91a2.79,2.79,0,0,0,2.34-1.27h.05v1.06h2.95V275.74Zm0,16.47a1.1,1.1,0,0,1-.93.42c-.9,0-1.06-.61-1.06-4.7s.24-4.76,1.14-4.76a1,1,0,0,1,.85.43Z" transform="translate(-248.64 -227)"/><path class="cls-1" d="M374.91,285c-.1-.82-.29-1.7-1.35-1.7a1,1,0,0,0-.93,1.14c0,2.18,5,2.4,5,6.46a3.72,3.72,0,0,1-3.93,3.93c-2.52,0-3.56-1.51-3.82-3.88l2.41-.37c.21,1.44.53,2,1.54,2a1,1,0,0,0,1-1.09c0-2.1-4.78-2.23-4.78-6.75a3.55,3.55,0,0,1,3.66-3.69c2.16,0,3.22,1.57,3.4,3.56Z" transform="translate(-248.64 -227)"/><path class="cls-3" d="M357.34,299.68A24.59,24.59,0,0,0,374.82,304c2-.32,4.71-1.16,6.06-3.35a3.94,3.94,0,0,0-.7-5.21,8.84,8.84,0,0,0-1.92-1.26,4.89,4.89,0,0,1-.46.56,8.28,8.28,0,0,1,1.92,1.23,3.23,3.23,0,0,1,.56,4.32c-1.21,1.95-3.69,2.72-5.57,3a23.85,23.85,0,0,1-17-4.24,37.8,37.8,0,0,1-3.18-2.59l-.3-.26h-1.07l.91.79A40,40,0,0,0,357.34,299.68Z" transform="translate(-248.64 -227)"/><path class="cls-3" d="M338.17,256.27a3,3,0,0,1,2.58-1.8h12.34a1.18,1.18,0,0,1,1,.45,1.16,1.16,0,0,1,.06,1.1l-1,2.67a.34.34,0,0,0,.12.41.36.36,0,0,0,.43,0,25.42,25.42,0,0,1,14.25-5.4A37,37,0,0,1,386.74,257a29.84,29.84,0,0,1,3.92,2.27c1.36.93,1.89,1.84,1.78,3.05a9,9,0,0,1-.85,2.66c-.16.36-.3.71-.43,1.05l-.66,1.76-.35.94c-.34.91-.68,1.82-1,2.74a3.73,3.73,0,0,0-.14.4,2.64,2.64,0,0,1-.7,1.29c-.61.45-1.17,0-1.94-.65l-.18-.15a25,25,0,0,0-7.1-4.43,25.53,25.53,0,0,0-9.9-1.86c-3.4,0-5.79,1-6.91,2.89a4.29,4.29,0,0,0-.55,3.13,4,4,0,0,0,2.09,2.34l.26.13v-.44h.67c-.2-.1-.39-.19-.57-.3a3.38,3.38,0,0,1-1.77-1.91,3.55,3.55,0,0,1,.48-2.58c1.24-2.06,4.11-2.53,6.31-2.56a24.92,24.92,0,0,1,9.63,1.81,24.29,24.29,0,0,1,6.9,4.31l.17.15c.68.6,1.71,1.51,2.82.69a3.06,3.06,0,0,0,1-1.64c0-.13.09-.26.13-.38l1-2.73.35-.95.66-1.76c.12-.32.26-.66.42-1a9.74,9.74,0,0,0,.9-2.87,3.93,3.93,0,0,0-2.08-3.7,30.72,30.72,0,0,0-4-2.32A37.64,37.64,0,0,0,367.93,253a26.69,26.69,0,0,0-13.66,4.78l.56-1.5a1.75,1.75,0,0,0-1.74-2.5H340.75a3.72,3.72,0,0,0-3.24,2.25l-8.89,23.89a5.19,5.19,0,0,1,.85-.27Z" transform="translate(-248.64 -227)"/><path class="cls-3" d="M332.66,313.85a3,3,0,0,1-2.58,1.8H317.13a3,3,0,0,1-2.59-1.8L292.94,256a1.16,1.16,0,0,1,.07-1.1,1.15,1.15,0,0,1,1-.45h12.34a3,3,0,0,1,2.59,1.8l6.57,17.57a5.82,5.82,0,0,1,.73-.07L309.61,256a3.75,3.75,0,0,0-3.25-2.25H294a1.75,1.75,0,0,0-1.73,2.5l21.59,57.82a3.72,3.72,0,0,0,3.25,2.26h12.95a3.71,3.71,0,0,0,3.24-2.26L340,296.25h-.75Z" transform="translate(-248.64 -227)"/><path class="cls-3" d="M391.25,284.3c-3.59-3.29-8.32-5-12-6.07l-3.06-.85-4.18-1-.06,0-.25-.06h0l-.12,0-1.18-.27v.72l1,.24,1.48.34h0c2.29.55,4.19,1,6.13,1.58,3.64,1.08,8.27,2.72,11.75,5.92a16.32,16.32,0,0,1,5,12.93,18.41,18.41,0,0,1-4.91,12.15,23,23,0,0,1-12.71,6.26,41.44,41.44,0,0,1-18.93-1.11,32.91,32.91,0,0,1-8.23-3.73l-.2-.13c-2-1.26-4.21-2.68-3.37-5.1.61-1.78,1.3-3.57,2-5.3.32-.84.64-1.68.95-2.52.09-.22.16-.44.24-.66a10,10,0,0,1,.53-1.35h-.59l-.06-.27a12,12,0,0,0-.55,1.4c-.07.22-.15.43-.22.64l-1,2.52c-.66,1.74-1.35,3.53-2,5.32-1,2.94,1.69,4.66,3.66,5.92l.21.13a33.61,33.61,0,0,0,8.4,3.82,42.26,42.26,0,0,0,12.07,1.75,40.62,40.62,0,0,0,7.18-.63c5.44-1,10-3.21,13.09-6.46a19.12,19.12,0,0,0,5.11-12.61A17,17,0,0,0,391.25,284.3Z" transform="translate(-248.64 -227)"/></svg>