<svg id="Layer_1" data-name="Layer 1" xmlns="http://www.w3.org/2000/svg" viewBox="0 0 386.93 143.98"><defs><style>.cls-1{fill:#4f2c1d;}</style></defs><title>Stonegate_PC_brown_E</title><path class="cls-1" d="M204.66,296.93a16.93,16.93,0,0,0,6.29,1.35c5,0,7.64-3.63,7.64-6.63,0-5.41-7.25-7.16-12.33-12.23a8.47,8.47,0,0,1-2.86-6.33c0-3.73,3-8.71,10.2-8.71a28.82,28.82,0,0,1,3.14.15c.92,0,1.74.14,2.52.14a19.37,19.37,0,0,0,2.46-.14l.15,8.07h-.29l-1.5-5.51a15.83,15.83,0,0,0-5.7-1.4c-4.06,0-7.06,2.46-7.06,5.9,0,5.13,8.16,7.39,12.81,12a9,9,0,0,1,2.81,6.48c0,3.67-2.51,9.58-11.41,9.58-3.14,0-4.79-.34-6.53-.34-1.26,0-1.69.14-2.08.14l-.38-8.31h.34Z" transform="translate(-202.53 -234.01)"/><path class="cls-1" d="M261.17,264.82c2.46,0,5-.19,7.44-.38l.49,7.59h-.29l-1.74-5.56a25.83,25.83,0,0,0-4.45-.39,27.45,27.45,0,0,0-7.16.92c-.39,3.53-.58,8.12-.58,10.4v7.83a115.39,115.39,0,0,0,.73,13.06l5.89.87v.25H243.67v-.25l5.76-.87a117.38,117.38,0,0,0,.72-12.62V277.1a93.58,93.58,0,0,0-.53-10.1,32.24,32.24,0,0,0-6.92-.87,30.16,30.16,0,0,0-4.74.44l-1.74,5.6h-.29l.48-7.73c1.41.1,2.85.38,4.26.38Z" transform="translate(-202.53 -234.01)"/><path class="cls-1" d="M286.45,281.94c0,11.22,7.26,16.1,13.59,16.1,7.16,0,13.59-5.61,13.59-15.48,0-14.41-9.48-16.63-13.64-16.63C292.74,265.93,286.45,271.78,286.45,281.94Zm32.69.09c0,8.27-6.63,17.61-18.86,17.61-13.73,0-19.34-10.45-19.34-17.5,0-9.2,7.4-17.8,18.91-17.8C313.87,264.34,319.14,275.08,319.14,282Z" transform="translate(-202.53 -234.01)"/><path class="cls-1" d="M330.29,265.06v-.25h11.94a100.29,100.29,0,0,0,6.38,7.74l10.59,11.8c2,2.22,3.92,4.34,6.29,6.57.15-1.7.29-4.16.29-5.71V275a66.86,66.86,0,0,0-.58-9.09l-5.75-.87v-.25h14.07v.25l-5.75.87a78.28,78.28,0,0,0-.44,8.51v25.87h-.25c-2.37-3-4.68-5.8-7.16-8.56l-14.45-16.11c-1.74-1.88-3.68-3.86-5.42-5.46a49.31,49.31,0,0,0-.38,6v14.95a65.31,65.31,0,0,0,.48,7.16l6,.87v.25H331.78v-.25l5.8-.82a100.25,100.25,0,0,0,.53-10.44V276.33c0-2.67-.1-5.61-.34-8.08l-3.14-2.32Z" transform="translate(-202.53 -234.01)"/><path class="cls-1" d="M385.5,264.82h25.15l.58,7.35h-.34l-1.74-5.75c-1.35-.1-3-.14-4.5-.14a36.39,36.39,0,0,0-7.4.63,75.9,75.9,0,0,0-.49,8.75c0,1.6,0,3.53.19,5,1.7.09,3.29.15,4.79.15a51.6,51.6,0,0,0,5.51-.25l1.06-4.06h.39v10.11h-.39l-1.11-4.3a36.62,36.62,0,0,0-4.5-.25,47.58,47.58,0,0,0-5.71.3c-.14,1.4-.24,3.24-.24,4.49,0,2.86.15,7.88.44,10.2a27.13,27.13,0,0,0,7.55.87,39.52,39.52,0,0,0,4.55-.2l1.89-5.7h.34l-.49,7.4H385.55v-.25l5.61-.82c.43-2.42.82-11.36.82-14.46v-5.95c0-2.08-.19-7.78-.68-12l-5.8-.82Z" transform="translate(-202.53 -234.01)"/><path class="cls-1" d="M464.77,286.44l-3.77.82a60.36,60.36,0,0,0-.68,9.28c-3.48,1.36-7.64,3.1-13.64,3.1-13,0-18.62-9-18.62-17,0-9.48,6.53-18.32,18.52-18.32,1,0,2.18.09,3.63.14s3.24.2,5.51.2c1.84,0,3.33-.09,3.82-.14l.34,7.88h-.34l-1.5-5.27A38.27,38.27,0,0,0,449.1,266c-11.6,0-15.56,8.27-15.56,15.47a15.77,15.77,0,0,0,15.76,16,46.13,46.13,0,0,0,5.8-.67,24.5,24.5,0,0,0,.43-4.36,22.85,22.85,0,0,0-.48-5.18l-6-.82v-.29h15.76Z" transform="translate(-202.53 -234.01)"/><path class="cls-1" d="M484.55,286.86a50.45,50.45,0,0,0,6.77.34,51.84,51.84,0,0,0,6.77-.34,123.21,123.21,0,0,0-7-15.75C488.95,275.31,485.56,284.31,484.55,286.86Zm9.14-22.39,10.15,24.37a91,91,0,0,0,4.64,9.48l3.92.82v.25H495.72v-.25l6.43-.82a32.23,32.23,0,0,0-3.43-9.87H483.92c-1.06,2.71-2.9,7.21-3.34,9.87l6.19.82v.25h-13.2v-.25l4.34-.82a46.69,46.69,0,0,0,2.9-6.05l10.93-27.8Z" transform="translate(-202.53 -234.01)"/><path class="cls-1" d="M544.78,264.82c2.47,0,5-.19,7.45-.38l.49,7.59h-.3l-1.74-5.56a25.84,25.84,0,0,0-4.45-.39,27.44,27.44,0,0,0-7.16.92c-.39,3.53-.58,8.12-.58,10.4v7.83a116.66,116.66,0,0,0,.72,13.06l5.91.87v.25H527.28v-.25l5.75-.87a117.49,117.49,0,0,0,.73-12.62V277.1a92.49,92.49,0,0,0-.53-10.1,32.25,32.25,0,0,0-6.91-.87,30.1,30.1,0,0,0-4.74.44l-1.74,5.6h-.29l.49-7.73c1.4.1,2.85.38,4.25.38Z" transform="translate(-202.53 -234.01)"/><path class="cls-1" d="M563.45,264.82h25.14l.58,7.35h-.34l-1.74-5.75c-1.35-.1-3-.14-4.5-.14a36.37,36.37,0,0,0-7.4.63,76.47,76.47,0,0,0-.48,8.75c0,1.6,0,3.53.19,5,1.69.09,3.29.15,4.79.15a51.7,51.7,0,0,0,5.51-.25l1.06-4.06h.38v10.11h-.38l-1.11-4.3a36.55,36.55,0,0,0-4.5-.25,47.51,47.51,0,0,0-5.7.3c-.15,1.4-.24,3.24-.24,4.49,0,2.86.14,7.88.43,10.2a27.14,27.14,0,0,0,7.54.87,39.5,39.5,0,0,0,4.55-.2l1.88-5.7h.34l-.48,7.4H563.5v-.25l5.61-.82c.43-2.42.82-11.36.82-14.46v-5.95c0-2.08-.19-7.78-.68-12l-5.8-.82Z" transform="translate(-202.53 -234.01)"/><rect class="cls-1" width="386.93" height="2.88"/><rect class="cls-1" y="6.12" width="386.93" height="1.08"/><rect class="cls-1" y="141.1" width="386.93" height="2.88"/><rect class="cls-1" y="136.78" width="386.93" height="1.08"/><path class="cls-1" d="M297.51,331.34a2.44,2.44,0,0,0-2.35-2.52,5.46,5.46,0,0,0-3.64,1.4c-.73.67-.9,1.18-1.06,1.12s.11-.73.78-1.46a5.38,5.38,0,0,1,4.09-1.62,3,3,0,0,1,3.08,3.19c0,4.14-5.38,9.13-11.26,8.9-3.92-.11-6.33-1.62-6.22-5,.22-6.55,9.24-11.76,19.43-11.76a17.23,17.23,0,0,1,8.9,2.13,17.17,17.17,0,0,1,3.86-2.24,15,15,0,0,1,5.66-1.29c1.79,0,3.47.56,4.09,1.57.11.22.17.45,0,.5s-.11-.11-.34-.34a5.11,5.11,0,0,0-3.7-1.18,13.83,13.83,0,0,0-5.32,1.18,18.84,18.84,0,0,0-3.7,2.18,6.26,6.26,0,0,1,1.12,9c-2.24,3.3-6.5,4-8.4,4.2a10.41,10.41,0,0,1-2.8-.17,26.62,26.62,0,0,1-9.41,6.61v.06a46.09,46.09,0,0,0,5.66.84,7.61,7.61,0,0,0,4.54-1.23c.56-.39.62-.56.73-.45s.06.39-.5.9a8.12,8.12,0,0,1-5.38,1.9,31.07,31.07,0,0,1-7.17-1.06,27.71,27.71,0,0,1-8.62,1.18c-2,0-5.1-.28-5.1-1.85s2.24-2.35,5.77-2.18a61.81,61.81,0,0,1,9,1.57c3.14-1.85,5.66-4.76,9-8.74,2.69-3.3,6.83-8.29,10.19-10.42a15.09,15.09,0,0,0-8-2.13c-9.24,0-16.69,4.54-17.19,11.54a3.73,3.73,0,0,0,3.86,4.26c5.6.22,10.36-5.26,10.36-8.46Zm-10.19,14.9c-2-.34-5.26-1.06-7.28-1.18-2.74-.22-4.82-.11-4.82.9s2.86,1.29,4.37,1.29a27.76,27.76,0,0,0,7.73-1Zm12.77-7.67a7.11,7.11,0,0,0,2.18,0,9.72,9.72,0,0,0,6.72-4.37c2.13-3,1.46-6.1.11-7.45-2.58,2.24-5.82,8-7.73,10.36a7.93,7.93,0,0,1-1.29,1.4Z" transform="translate(-202.53 -234.01)"/><path class="cls-1" d="M316.77,339.06c0,.73-1.29,1.9-2.58,3.36a16.74,16.74,0,0,0-1.9,2.63c-.28.5-.22.9-.06,1.06s.78,0,1.23-.22a17.63,17.63,0,0,0,2.52-1.68c1.23-1,2-1.62,2.74-2.29.17-.22.56-.5.67-.39s-.28.62-.45.78a35.84,35.84,0,0,1-3.36,2.91c-1.18.9-3.14,2.24-5,2.24-1.18,0-1.79-.62-1.74-1.46.06-1.23,1.46-2.8,2.69-4s3.47-2.8,3.64-3.19c.22-.62-.84-.5-2.24-.45a2.68,2.68,0,0,1-1.29-.11c-.45.5-1.34,1.34-2.13,2.13s-1.85,1.74-2.46,2.29c-.39.34-.62.39-.73.28s.17-.45.39-.62c.73-.67,1.51-1.4,2.46-2.35.73-.73,1.62-1.62,2-2a1.15,1.15,0,0,1,0-1.79,2.73,2.73,0,0,1,2.13-1,1,1,0,0,1,1,.56,6.48,6.48,0,0,0-1,.78c-.73.84-.56,1.18.17,1.23,1.57.06,3.19.11,3.19,1.12Z" transform="translate(-202.53 -234.01)"/><path class="cls-1" d="M323.21,339.06a24.83,24.83,0,0,0-2.24,1.62c-.78.67-1.51,1.23-2.46,2.13-.22.17-.45.34-.56.22s.06-.39.28-.67c.45-.39,3-2.58,4.31-3.47a5,5,0,0,1,3.25-1.23c1.18-.06,1.34.17.62.9-1,1.12-1.85,2.24-3,3.58a28.6,28.6,0,0,0-2,2.74c-.34.62-.39,1.06-.17,1.23.28.34.84.06,1.34-.17a12.6,12.6,0,0,0,2.46-1.74c1.18-1,2.07-1.68,2.69-2.29.28-.17.62-.5.78-.34s-.28.56-.45.73a38.16,38.16,0,0,1-3.36,2.91c-1.12.9-3,2.3-4.87,2.3-1.18,0-1.74-.62-1.68-1.46a4.07,4.07,0,0,1,.84-2.13,29.61,29.61,0,0,1,4.2-4.82Zm7.84-9c.73,0,1.06.62.39,1.46a4.33,4.33,0,0,1-2.63,1.51,2.18,2.18,0,0,1-.06-1.9c.39-.84,1.18-1.06,2.24-1.06Z" transform="translate(-202.53 -234.01)"/><path class="cls-1" d="M330.77,346.57a28.66,28.66,0,0,0,5-2.24,16.89,16.89,0,0,0,2.46-1.51,7,7,0,0,1,1.29-3.19c1-1.46,2-2.24,2.69-2.07s.62,1.29.17,2a10.59,10.59,0,0,1-3.58,3.64c.06.5.62.84,1.18.9a5,5,0,0,0,2.86-1c.67-.56,1.12-.9,1.4-1.18s.56-.5.73-.34-.11.39-.45.73a16.56,16.56,0,0,1-1.51,1.23,5.38,5.38,0,0,1-3.08,1.06,1.63,1.63,0,0,1-1.62-1.06c-.62.39-1.4.79-2.35,1.34a35.66,35.66,0,0,1-5.66,2.46,7.53,7.53,0,0,1-1.62.28c-.39,0-.78-.11-.84-.67a1.2,1.2,0,0,1,.5-1c.78-.9,1.85-2.13,2.74-3.25a15.57,15.57,0,0,0,2.07-3.08c.17-.34.17-.67,0-.78s-.56-.11-.84.06a11.84,11.84,0,0,0-2.18,1.51c-.84.73-1.74,1.51-2.58,2.29-.28.22-.56.45-.73.34s.17-.5.39-.67a41.48,41.48,0,0,1,3.19-2.91,7.26,7.26,0,0,1,3.92-1.9c1.06,0,1.68.62,1.57,2-.22,2.13-4,6-5.15,7Z" transform="translate(-202.53 -234.01)"/><path class="cls-1" d="M355.24,339.68c1.29-1.4,2.24-2.13,3.14-2.13,1.18-.05,1.29.22.73.9-.73.84-2,2.24-3.14,3.7a16.11,16.11,0,0,0-2,2.74c-.45.67-.39,1.12-.17,1.29s.84,0,1.29-.22a14.6,14.6,0,0,0,2.52-1.74c1.18-1,2.07-1.74,2.69-2.29.28-.22.56-.56.73-.39s-.28.62-.45.78a38.27,38.27,0,0,1-3.36,2.91c-1.12.9-3,2.24-4.82,2.24-1.06,0-1.57-.5-1.62-1.18a3.07,3.07,0,0,1,.78-2h-.06c-1.46,1.29-4,3.08-6.16,3.19-1.23.06-2.46-.39-2.3-2.24a6.24,6.24,0,0,1,1.57-3h-.06l-.5.5c-.28.22-.62.45-.73.34s.17-.45.39-.67a21.87,21.87,0,0,1,1.85-1.51,29.13,29.13,0,0,1,2.8-1.74c2-1.06,4.14-1.79,5.6-1.57a1.52,1.52,0,0,1,1.18,2.13Zm-1.51-1.57c-1.06,0-3.08,1.51-5.1,3.53s-3.19,3.7-3.14,4.42a.64.64,0,0,0,.73.56c1.06,0,3.19-1.23,4.7-2.63,1.79-1.57,3.81-4,3.86-4.87.06-.73-.39-1-1-1Z" transform="translate(-202.53 -234.01)"/><path class="cls-1" d="M362.8,340.35c-.84.78-2.07,1.9-2.63,2.41-.22.22-.56.39-.67.28s.17-.5.39-.67c1.51-1.34,3.42-3.08,4.48-4-.73,0-1.12.06-2,.06-.39.06-.67,0-.62-.28s.62-.28,1.51-.34a14,14,0,0,0,1.57-.06,75.83,75.83,0,0,1,5.26-5.82c1-1,2.35-2.3,3.53-2.3.62,0,.73.17.84.34-.67.62-2.13,2.18-3.42,3.64s-2.3,2.69-3.42,4.14c1.29-.05,2.3-.05,3.19-.05.39,0,.9.11.78.34s-.56.28-1,.28c-1.23,0-2.13,0-3.42.06a41.9,41.9,0,0,0-4,6.16c-.34.62-.45,1.34,0,1.62s.9,0,1.34-.22a17.69,17.69,0,0,0,2.52-1.68c1-.78,2.07-1.74,2.69-2.29.28-.22.56-.5.73-.34s-.28.56-.45.73a33.07,33.07,0,0,1-3.36,2.91c-1.06.84-3,2.3-5.15,2.3-1.29,0-1.74-.73-1.68-1.57.11-1.4,1.4-3.42,3-5.54Z" transform="translate(-202.53 -234.01)"/><path class="cls-1" d="M378.82,337.55a1.49,1.49,0,0,1,1.62,1.46c-.11,1.46-1.9,2.58-3.58,3.42a29.78,29.78,0,0,1-4.87,1.79,3.74,3.74,0,0,0-.34,1.23c-.06.78.5,1.23,1.29,1.29,1.23,0,2.86-.56,5.1-2a25,25,0,0,0,3.58-2.86c.22-.22.56-.5.73-.34s-.28.62-.45.78a31.64,31.64,0,0,1-3.53,2.91,12.46,12.46,0,0,1-6.55,2.41c-2.07,0-3.14-.9-3.08-2.29a6.28,6.28,0,0,1,1.34-3.08H370l-.45.45c-.28.22-.62.45-.73.34s.17-.45.39-.67a21.89,21.89,0,0,1,1.85-1.51c.56-.34,1.68-1.12,2.69-1.68a12.11,12.11,0,0,1,5-1.62Zm-6.5,6.1a15.57,15.57,0,0,0,3.86-1.74,4.83,4.83,0,0,0,2.3-2.91c.11-.5-.17-.73-.67-.73a5.41,5.41,0,0,0-2.46,1.51,22.62,22.62,0,0,0-3,3.81Z" transform="translate(-202.53 -234.01)"/><path class="cls-1" d="M405.08,321a8.41,8.41,0,0,1,6.78,3.47,12.23,12.23,0,0,1,3-.45c3.53-.17,7.11.78,6.5,4.2s-6.5,5.15-10.75,5.15c-3.14,0-6.44-.73-8.46-2.24-4.26,3.81-7.28,8.9-7.28,12.54,0,3.25,2,4.54,4.82,4.54a14.88,14.88,0,0,0,8.12-2.86,26.39,26.39,0,0,0,3.42-2.86c.11-.17.45-.45.62-.34s0,.45-.17.62a28,28,0,0,1-3.64,3,16.16,16.16,0,0,1-8.46,3.19c-4.65.17-7.9-1.51-8.06-5.66-.17-4.93,4.54-10.25,9.18-13.61a5.93,5.93,0,0,1-1.4-3.53c0-3.14,2.69-5.21,5.71-5.21Zm-.5.73a4.41,4.41,0,0,0-4.54,4.54,5.48,5.48,0,0,0,1.29,3.14,36.58,36.58,0,0,1,9.69-4.65,8.94,8.94,0,0,0-6.38-3Zm6.22,11.09c4,0,7.9-2,8.51-4.7.56-2.58-1.23-3.75-4.2-3.7a11.16,11.16,0,0,0-2.91.62,8.69,8.69,0,0,1,.9,3c.06.9,0,1.51-.17,1.4s0-.34-.22-1.12a8.7,8.7,0,0,0-1.34-3.08,29.84,29.84,0,0,0-8.74,5.49c2,1.46,5.1,2.07,8.12,2.07Z" transform="translate(-202.53 -234.01)"/><path class="cls-1" d="M412.86,341.64c-.39.39-.73.73-1.12,1.06s-.62.45-.73.34.17-.45.39-.67a21.89,21.89,0,0,1,1.85-1.51c.62-.39,1.68-1.12,2.8-1.74a12.54,12.54,0,0,1,4.7-1.57c.28-.05.73-.05.84.22,0,.11-.39.22-.62.34a13.82,13.82,0,0,0-4,3.08c-1.57,1.46-3.08,3.81-3.25,4.93-.06.56.17,1,.78,1,1.23,0,3.47-1.51,5.21-3.42a4.66,4.66,0,0,1,1-2.35,4.56,4.56,0,0,1,1.79-1.46,4.33,4.33,0,0,0,.17-1.4c-.11-.56-.28-.73-.06-.78s.56.11.78.34a2.14,2.14,0,0,1,.67,2c-.17,1.34-1.46,3-3.19,4.54a2.29,2.29,0,0,0,1.06,0,4.5,4.5,0,0,0,1.9-1c.73-.5,1.4-1.18,2-1.62.22-.22.56-.5.67-.34s-.11.39-.45.73a15.27,15.27,0,0,1-2,1.68,5.35,5.35,0,0,1-2.13,1,2.32,2.32,0,0,1-1.51-.11c-1.46,1.12-4.09,2.74-6.38,2.74-1.74,0-2.86-.9-2.74-2.46a6.58,6.58,0,0,1,1.57-3.47Z" transform="translate(-202.53 -234.01)"/><path class="cls-1" d="M430.22,339.06a25,25,0,0,0-2.24,1.62c-.78.67-1.51,1.23-2.46,2.13-.22.17-.45.34-.56.22s.06-.39.28-.62a50.88,50.88,0,0,1,4.31-3.53,5.37,5.37,0,0,1,3.25-1.23c1.18,0,1.29.17.62.9s-1.79,2.13-2.91,3.47a22.73,22.73,0,0,0-2.07,3c-.22.45-.28.78-.11,1s.73.17,1.29-.06a39,39,0,0,0,4.26-2.91c2.52-1.85,4.25-3.47,6-4.87a2.28,2.28,0,0,1,1.62-.62c1,0,1.51.11.84.9-1,1.23-1.85,2.13-3,3.58a21.91,21.91,0,0,0-2.07,2.86c-.39.62-.34,1.06-.17,1.23a1.59,1.59,0,0,0,1.29-.17,14.56,14.56,0,0,0,2.52-1.74c1.12-.9,2.07-1.68,2.69-2.29.28-.17.62-.5.73-.34s-.28.56-.45.73a33.09,33.09,0,0,1-3.36,2.91c-1.12.9-3,2.24-4.82,2.24-1.12,0-1.74-.5-1.74-1.34a4.51,4.51,0,0,1,.9-2.3,22.25,22.25,0,0,1,2.18-2.46l-.11-.11c-1.18,1-2.74,2.18-4,3.13-2.3,1.74-4.31,3.08-6,3.08-1.18,0-1.9-.56-1.85-1.57a5.45,5.45,0,0,1,1-2.13,33.11,33.11,0,0,1,4.09-4.65Z" transform="translate(-202.53 -234.01)"/><path class="cls-1" d="M455.2,347.46c-1.06,0-1.74-.62-1.62-1.46.11-1.23,1.4-2.74,2.35-3.92.84-1,1.62-2,2.35-2.74.22-.28.34-.62.06-.78s-1.06.17-1.46.34a27.53,27.53,0,0,0-4.37,2.86c-2.46,1.9-3.81,3.19-6.27,5.1a2,2,0,0,1-1.46.5c-.78,0-1.18-.11-.73-.9a25,25,0,0,1,2.46-3.75c.9-1.18,1.34-1.74,2.3-2.91.34-.39.5-.78.34-1s-.56-.11-.84.06a11.87,11.87,0,0,0-2.18,1.51c-.84.73-1.74,1.51-2.58,2.29-.28.22-.56.45-.73.34s.17-.5.39-.67a41.3,41.3,0,0,1,3.19-2.91,7.25,7.25,0,0,1,3.92-1.9,1.26,1.26,0,0,1,1.4,1.29,5.14,5.14,0,0,1-1.18,2.35c-.84,1.12-1.79,2.35-2.41,3.25l.17.06c1.34-1.12,2.86-2.46,4.82-3.92s4.42-3,6.1-3c1.18,0,1.9.56,1.74,1.51s-1.34,2.3-2.24,3.42a21.75,21.75,0,0,0-1.85,2.41c-.45.67-.45,1.06-.22,1.23s.9.06,1.34-.17a14.64,14.64,0,0,0,2.69-1.74c.9-.67,2.07-1.74,2.74-2.35.28-.22.56-.45.73-.28s-.34.56-.5.73a42.73,42.73,0,0,1-3.41,2.91c-1.18.9-3.14,2.24-5,2.24Z" transform="translate(-202.53 -234.01)"/><path class="cls-1" d="M470,346a18.89,18.89,0,0,0,2.46-1.34,30.15,30.15,0,0,0,3.7-2.74c.22-.22.56-.5.73-.34s-.28.56-.45.73a31.47,31.47,0,0,1-3,2.41,20.07,20.07,0,0,1-3.53,1.9,13.32,13.32,0,0,1-4.7,1c-3,0-3.58-1.79-3.36-3.36s1.62-3,3-2.86a.94.94,0,0,1,1,1.18,2.38,2.38,0,0,1-1.23,1.4,2.52,2.52,0,0,0-1.29,1.68c-.06.9.62,1.4,1.62,1.4s2.52-.9,3.75-3c1-1.62,2-5,2.63-5.71v-.06c-.56.56-1.74,1.4-2.69,2.13a13.71,13.71,0,0,1-2.13,1.34c-.28.17-.45.22-.56.11s.06-.28.28-.5c.56-.34,1.46-1,2.35-1.57s2-1.57,3.3-2.69a3.49,3.49,0,0,1,.9-1,2.57,2.57,0,0,1,1.62-.62c1.29,0,.45.73-.28,1.18a11.68,11.68,0,0,0-1.34.84c-.45.45-.39.9-.39,1.51a10,10,0,0,1-.5,4.59A6.08,6.08,0,0,1,470,346Z" transform="translate(-202.53 -234.01)"/><path class="cls-1" d="M485.27,337.55a1.49,1.49,0,0,1,1.62,1.46c-.11,1.46-1.9,2.58-3.58,3.42a29.78,29.78,0,0,1-4.87,1.79,3.72,3.72,0,0,0-.34,1.23c-.06.78.5,1.23,1.29,1.29,1.23,0,2.86-.56,5.1-2a25,25,0,0,0,3.58-2.86c.22-.22.56-.5.73-.34s-.28.62-.45.78a31.57,31.57,0,0,1-3.53,2.91,12.45,12.45,0,0,1-6.55,2.41c-2.07,0-3.14-.9-3.08-2.29a6.28,6.28,0,0,1,1.34-3.08h-.06l-.45.45c-.28.22-.62.45-.73.34s.17-.45.39-.67a21.72,21.72,0,0,1,1.85-1.51c.56-.34,1.68-1.12,2.69-1.68a12.11,12.11,0,0,1,5-1.62Zm-6.5,6.1a15.58,15.58,0,0,0,3.86-1.74,4.83,4.83,0,0,0,2.3-2.91c.11-.5-.17-.73-.67-.73a5.4,5.4,0,0,0-2.46,1.51,22.63,22.63,0,0,0-3,3.81Z" transform="translate(-202.53 -234.01)"/><path class="cls-1" d="M490.53,340.29c-.84.73-1.74,1.57-2.24,2.07-.34.28-.5.34-.62.17s.11-.34.39-.62c1.06-1,2.35-2.13,3.7-3.25,1.62-2.13,4.26-5.43,6.66-8.23a127.55,127.55,0,0,1,12.71-12.94c1.29-1,3-2.24,4.65-2.24a1.56,1.56,0,0,1,1.68,2C517,320,511.7,324.45,506,329.15c-3.42,2.8-6.94,5.49-11.09,9.13a38.34,38.34,0,0,0-4,6.22c-.22.34-.56,1.23-.17,1.57s1.23-.06,1.74-.34a12,12,0,0,0,2.18-1.51,31.07,31.07,0,0,0,2.69-2.29c.28-.17.56-.5.73-.34s-.28.56-.45.73a42,42,0,0,1-3.36,2.91c-1.12.9-3.19,2.24-5,2.24-1.12,0-1.79-.5-1.74-1.51.06-1.4,1.51-3.58,3.08-5.66Zm5.32-3.42c5.32-4.7,7.11-6.1,9.69-8.34,5.43-4.7,10.36-9.13,10.58-11.59a.87.87,0,0,0-1-1.06c-1,0-2.3,1.12-3.47,2.24-1.85,1.85-4.37,4.54-7.28,8-4.09,4.87-5.54,6.66-8.57,10.7Z" transform="translate(-202.53 -234.01)"/></svg>