<?xml version="1.0" encoding="utf-8"?>
<!-- Generator: Adobe Illustrator 23.0.1, SVG Export Plug-In . SVG Version: 6.00 Build 0)  -->
<svg version="1.1" id="Layer_1" xmlns="http://www.w3.org/2000/svg" xmlns:xlink="http://www.w3.org/1999/xlink" x="0px" y="0px"
	 viewBox="0 0 217.3 36.3" style="enable-background:new 0 0 217.3 36.3;" xml:space="preserve">
<style type="text/css">
	.st0{fill:#00B298;}
	.st1{fill:#303030;}
</style>
<path class="st0" d="M24.6,35.3c-2.4,0-4.4-2-4.4-4.4v-1.6h-4v1.6c0,2.4-2,4.4-4.4,4.4s-4.4-2-4.4-4.4v-1.6h-6v-2.4h6v-4H5.8
	c-2.4,0-4.4-2-4.4-4.4s2-4.4,4.4-4.4h1.6v-4H5.6c-2.3,0-4.2-1.9-4.2-4.2s1.9-4.2,4.2-4.2s4.2,1.9,4.2,4.2v1.8h4V6.1
	c0-2.4,2-4.4,4.4-4.4s4.4,2,4.4,4.4v1.6h4v-6H29v6h1.6c2.4,0,4.4,2,4.4,4.4s-2,4.4-4.4,4.4H29v4h1.6c2.4,0,4.4,2,4.4,4.4
	s-2,4.4-4.4,4.4H29v1.6C28.9,33.3,27,35.3,24.6,35.3z M22.6,29.3v1.6c0,1.1,0.9,2,2,2s2-0.9,2-2v-1.6H22.6z M9.8,29.3v1.6
	c0,1.1,0.9,2,2,2s2-0.9,2-2v-1.6H9.8z M28.9,26.9h1.6c1.1,0,2-0.9,2-2s-0.9-2-2-2h-1.6V26.9z M22.6,26.9h4v-4h-4L22.6,26.9z
	 M16.2,26.9h4v-4h-4V26.9z M9.8,26.9h4v-4h-4V26.9z M22.6,20.5h4v-4h-4V20.5z M16.2,20.5h4v-4h-4V20.5z M9.8,20.5h4v-4h-4V20.5z
	 M5.8,16.5c-1.1,0-2,0.9-2,2s0.9,2,2,2h1.6v-4H5.8z M28.9,14.1h1.6c1.1,0,2-0.9,2-2s-0.9-2-2-2h-1.6V14.1z M22.6,14.1h4v-4h-4
	L22.6,14.1z M16.2,14.1h4v-4h-4V14.1z M9.8,14.1h4v-4h-4V14.1z M16.2,7.8h4V6.2c0-1.1-0.9-2-2-2s-2,0.9-2,2V7.8z M5.6,4.1
	c-1,0-1.8,0.8-1.8,1.8s0.8,1.8,1.8,1.8h1.8V5.9C7.4,4.9,6.6,4.1,5.6,4.1z"/>
<g>
	<path class="st1" d="M77.5,4.9h4.8l-7.7,27.6h-4.8l-6.7-20.9l-6.7,20.9h-4.8L43.8,4.9h4.9l5.5,20.2l6.5-20.2h4.9l6.6,20.3L77.5,4.9
		z"/>
	<path class="st1" d="M99.2,27.1c-0.3,0.8-0.6,1.6-1.1,2.3s-1.1,1.4-1.8,1.9s-1.6,1-2.5,1.3s-2,0.5-3.1,0.5c-1.3,0-2.5-0.2-3.7-0.7
		s-2.2-1.1-3.1-2s-1.6-1.9-2.1-3.2S81,24.5,81,22.9c0-1.5,0.3-2.9,0.8-4.1s1.2-2.3,2-3.1c0.9-0.9,1.8-1.5,3-2
		c1.1-0.5,2.3-0.7,3.5-0.7c1.5,0,2.8,0.2,3.9,0.7c1.2,0.5,2.1,1.1,2.9,2s1.4,1.9,1.8,3.1s0.6,2.6,0.6,4.1v1c0,0.3-0.1,0.4-0.1,0.5
		H85.5c0,0.7,0.2,1.4,0.5,2s0.7,1.1,1.1,1.6c0.5,0.4,1,0.8,1.6,1s1.3,0.4,2,0.4c1.4,0,2.4-0.3,3.2-1c0.7-0.6,1.3-1.4,1.6-2.4
		L99.2,27.1z M94.9,21c0-0.5-0.1-1.1-0.3-1.6s-0.5-1-0.9-1.3c-0.4-0.4-0.9-0.7-1.4-0.9c-0.6-0.2-1.2-0.4-2-0.4
		c-0.7,0-1.3,0.1-1.9,0.4c-0.6,0.2-1,0.6-1.4,1s-0.7,0.9-0.9,1.4s-0.4,1-0.4,1.5h9.2L94.9,21z"/>
	<path class="st1" d="M101.9,27.4c0-0.9,0.1-1.6,0.4-2.3c0.3-0.6,0.7-1.2,1.2-1.7s1.1-0.9,1.8-1.2s1.5-0.5,2.3-0.6l4.9-0.7
		c0.5-0.1,0.9-0.2,1.1-0.5c0.2-0.2,0.3-0.5,0.3-0.9c0-0.8-0.3-1.5-0.9-2c-0.6-0.6-1.5-0.8-2.7-0.8s-2.1,0.3-2.8,1
		c-0.6,0.7-1,1.5-1.1,2.4l-4.1-0.9c0.1-0.8,0.3-1.6,0.7-2.3c0.4-0.8,1-1.4,1.6-2c0.7-0.6,1.5-1,2.4-1.4c0.9-0.3,2-0.5,3.2-0.5
		c1.5,0,2.7,0.2,3.7,0.6s1.9,0.9,2.5,1.6c0.6,0.6,1.1,1.4,1.4,2.3s0.4,1.8,0.4,2.7v9.3c0,0.9,0,1.6,0.1,2.1s0.1,0.9,0.1,1h-4.2
		c0-0.1-0.1-0.3-0.1-0.7c-0.1-0.4-0.1-1-0.1-1.7c-0.4,0.7-1.1,1.4-2.1,2s-2.2,1-3.7,1c-1,0-1.9-0.2-2.7-0.5s-1.5-0.7-2-1.3
		c-0.6-0.5-1-1.1-1.3-1.8C102.1,28.9,101.9,28.1,101.9,27.4L101.9,27.4z M109.2,29.6c0.6,0,1.2-0.1,1.8-0.3s1.1-0.4,1.5-0.8
		s0.8-0.9,1-1.5c0.3-0.6,0.4-1.4,0.4-2.3v-0.9l-5,0.7c-0.7,0.1-1.3,0.4-1.8,0.8s-0.7,1-0.7,1.8c0,0.6,0.2,1.2,0.7,1.7
		S108.3,29.6,109.2,29.6z"/>
	<path class="st1" d="M121.9,32.5V4.9h4.5v27.6H121.9z"/>
	<path class="st1" d="M136.9,13.6h3.9v4h-3.9v8.8c0,0.8,0.2,1.4,0.6,1.8s1,0.6,1.8,0.6c0.3,0,0.6,0,0.9-0.1c0.3,0,0.5-0.1,0.6-0.1
		v3.7c-0.1,0.1-0.4,0.1-0.9,0.3c-0.4,0.1-1.1,0.2-1.9,0.2c-1.8,0-3.2-0.5-4.2-1.5s-1.5-2.4-1.5-4.2v-9.6h-3.5v-4h1
		c1,0,1.8-0.3,2.2-0.9c0.5-0.6,0.7-1.3,0.7-2.1V7.7h4.1L136.9,13.6L136.9,13.6z"/>
	<path class="st1" d="M148.1,32.5h-4.5V4.9h4.5v10.5c0.6-0.8,1.5-1.4,2.5-1.8s2-0.6,3-0.6c1.2,0,2.2,0.2,3.1,0.6s1.6,0.9,2.2,1.6
		s1,1.5,1.3,2.4s0.4,1.9,0.4,2.9v12H156V21.3c0-1.2-0.3-2.2-0.9-3s-1.6-1.2-3-1.2c-1.2,0-2.2,0.4-2.9,1.2s-1,1.8-1.1,3.1V32.5z"/>
	<path class="st1" d="M173.6,4.9c1.3,0,2.5,0.2,3.5,0.5c1,0.4,1.9,0.9,2.7,1.5c0.7,0.7,1.3,1.4,1.7,2.4c0.4,0.9,0.6,1.9,0.6,3
		c0,1.5-0.4,2.7-1.1,3.8c-0.8,1-1.7,1.8-2.9,2.2c1.5,0.4,2.7,1.2,3.6,2.4s1.4,2.6,1.4,4.2c0,1.1-0.2,2.1-0.6,3.1
		c-0.4,0.9-1,1.7-1.7,2.4s-1.6,1.2-2.7,1.6s-2.2,0.6-3.5,0.6h-10.2V4.9L173.6,4.9z M172.9,16.6c1.4,0,2.4-0.4,3.2-1.1
		s1.1-1.6,1.1-2.8s-0.4-2.1-1.2-2.8s-1.9-1.1-3.3-1.1h-4.1v7.7L172.9,16.6L172.9,16.6z M173.5,28.6c1.4,0,2.5-0.4,3.4-1.1
		c0.8-0.7,1.3-1.7,1.3-2.9s-0.4-2.2-1.2-2.9c-0.8-0.8-1.9-1.1-3.3-1.1h-4.9v8H173.5z"/>
	<path class="st1" d="M184.8,27.4c0-0.9,0.1-1.6,0.4-2.3c0.3-0.6,0.7-1.2,1.2-1.7s1.1-0.9,1.8-1.2s1.5-0.5,2.3-0.6l4.9-0.7
		c0.5-0.1,0.9-0.2,1.1-0.5c0.2-0.2,0.3-0.5,0.3-0.9c0-0.8-0.3-1.5-0.9-2c-0.6-0.6-1.5-0.8-2.7-0.8s-2.1,0.3-2.8,1
		c-0.6,0.7-1,1.5-1.1,2.4l-4.1-0.9c0.1-0.8,0.3-1.6,0.7-2.3c0.4-0.8,1-1.4,1.6-2c0.7-0.6,1.5-1,2.4-1.4c0.9-0.3,2-0.5,3.2-0.5
		c1.5,0,2.7,0.2,3.7,0.6s1.9,0.9,2.5,1.6c0.6,0.6,1.1,1.4,1.4,2.3s0.4,1.8,0.4,2.7v9.3c0,0.9,0,1.6,0.1,2.1s0.1,0.9,0.1,1h-4.2
		c0-0.1-0.1-0.3-0.1-0.7c-0.1-0.4-0.1-1-0.1-1.7c-0.4,0.7-1.1,1.4-2.1,2s-2.2,1-3.7,1c-1,0-1.9-0.2-2.7-0.5s-1.5-0.7-2-1.3
		c-0.6-0.5-1-1.1-1.3-1.8C184.9,28.9,184.8,28.1,184.8,27.4L184.8,27.4z M192.1,29.6c0.6,0,1.2-0.1,1.8-0.3s1.1-0.4,1.5-0.8
		s0.8-0.9,1-1.5c0.3-0.6,0.4-1.4,0.4-2.3v-0.9l-5,0.7c-0.7,0.1-1.3,0.4-1.8,0.8s-0.7,1-0.7,1.8c0,0.6,0.2,1.2,0.7,1.7
		S191.2,29.6,192.1,29.6z"/>
	<path class="st1" d="M215.9,18c-0.5-0.1-1-0.1-1.5-0.1c-1.8,0-3.1,0.5-3.9,1.4c-0.8,1-1.2,2.3-1.2,4.1v9h-4.5v-19h4.4v3
		c0.4-1,1.2-1.8,2.1-2.4c1-0.6,2.1-0.9,3.4-0.9h0.7c0.2,0,0.4,0.1,0.5,0.1V18z"/>
</g>
</svg>
