<svg xmlns="http://www.w3.org/2000/svg" width="300" height="62.26" viewBox="0 0 300 62.26"><title>logo</title><path d="M105.15,49.44l-.57,8.5A27.32,27.32,0,0,1,90,62.26c-10.24,0-18.27-7.41-18.27-19S80.39,24.38,90,24.38c6.8,0,11.64,3.7,12.56,3.7.46,0,.62-.46.77-.87h1.5v9.88h-1c-3.09-10.5-10.91-11.58-13.33-11.58-6.33,0-14,5.61-14,16.93,0,12.05,7.77,18.27,15.08,18.27s11-4.83,12.56-11.27Z" style="fill:#231f20"/><path d="M120.28,60.1v1.34c-1.65-.06-3.3-.11-6.13-.11s-4.42.05-6.17.11V60.1l3.8-.21c.11-2.78.06-3.4.06-10.09,0-17.7,0-19.66-.06-23l-3.8-.21V25.2c1.69.05,3.29.11,6.17.11s4.38-.06,6.13-.11v1.34l-3.76.21c-.1,2.78-.15,3.39-.15,10.08,0,17.71,0,19.66.15,23.06Z" style="fill:#231f20"/><path d="M132.11,26.54V25.2c1.65.05,3.35.11,9.78.11,3.14,0,9.47,0,17.4-.11l.26,8.55h-1.81c-.46-6.59-1.18-7.31-5.61-7.31H140.35V42.29c3.14,0,7.36-.26,8.85-1,.67-.31,1-4.94,1-5.76h1.7c-.16,1.44-.26,3.91-.26,8.33,0,3.14,0,4.53.15,6.08h-1.69c-.26-4.74-.62-6.23-.88-6.28a24.13,24.13,0,0,0-3.55-.21h-5.3c0,11.94,0,13.28.1,16.47l4.07.21v1.34c-1.86,0-4.22-.11-6.69-.11-2.68,0-4.43.11-5.61.11V60.1l3.6-.21V31.07c0-1.65,0-2.83-.1-4.32Z" style="fill:#231f20"/><path d="M159.9,60.1l2.89-.05v-17c0-1.34-.16-1.44-2.63-1.59V39.92l6.33-.82V60.05l2.73.05v1.23H159.9Zm7-31.71a2.54,2.54,0,0,1-2.41,2.68,2.08,2.08,0,0,1-2.11-2.21,2.47,2.47,0,0,1,2.47-2.63A2,2,0,0,1,166.9,28.39Z" style="fill:#231f20"/><path d="M170.35,60.1l2.73-.05v-18L170.2,42V39.92l6.23-.72c0,1.49.1,1.91.61,1.91S181,39,185.28,39c4,0,6.53,2,6.53,6.22V60.05l2.73.05v1.23h-9.06V60.1l2.63-.05V45.48c0-3.45-.77-4.94-4.89-4.94a13.27,13.27,0,0,0-5.92,1.34c-.31.2-.51.67-.51,2V60.05l2.67.05v1.23h-9.11Z" style="fill:#231f20"/><path d="M214.31,60.82A28.45,28.45,0,0,1,209.47,62c-1,0-1.5-.72-1.55-1.7s0-1.08-.25-1.08c-2.17,1.13-5.1,3-7.93,3a4.59,4.59,0,0,1-4.63-4.79c0-5,5.87-6.85,12.92-7l.05-6.59c0-2.88-.62-3.4-3.66-3.4-2.72,0-4.32.57-4.42,1-.21,1.6-.41,2.78-.57,3.66a3,3,0,0,1-2,1.39c-.83,0-1.14-.93-1.14-2.06,0-2.06,1-2.78,2.47-3.55a19.23,19.23,0,0,1,7.93-2c3.65,0,4.94,1.7,4.94,4.84l-.05,15.85h2.68ZM208,52.17c.06-1-.1-1-.56-1s-8.8.72-8.8,5.82c0,1.8.82,3,3,3a16.56,16.56,0,0,0,5.46-1.44c.77-.31.82-.36.87-1.49Z" style="fill:#231f20"/><path d="M215.64,60.1l2.73-.05v-18l-2.88-.1V39.92l6.22-.72c0,1.49.11,1.91.62,1.91s4-2.11,8.24-2.11c4,0,6.53,2,6.53,6.22V60.05l2.73.05v1.23h-9.06V60.1l2.63-.05V45.48c0-3.45-.77-4.94-4.89-4.94a13.27,13.27,0,0,0-5.92,1.34c-.31.2-.51.67-.51,2V60.05l2.67.05v1.23h-9.11Z" style="fill:#231f20"/><path d="M259.34,56.39a9.45,9.45,0,0,1-9,5.77c-5.86,0-10-5-10-11.22,0-4.53,2.62-12.15,10.34-12.15,5.66,0,8.75,3.86,8.75,6.74,0,.72-.2.88-1.34.88-1.64,0-2.06-.36-2.47-2.11-.67-2.94-.92-4.38-3.7-4.38-3.76,0-7.88,3.45-7.88,10s4.33,10,8.13,10c3.61,0,5.41-2.57,6.39-4Z" style="fill:#231f20"/><path d="M259.86,60.1l2.88-.05v-17c0-1.34-.16-1.44-2.63-1.59V39.92l6.33-.82V60.05l2.73.05v1.23h-9.31Zm7-31.71a2.55,2.55,0,0,1-2.42,2.68,2.08,2.08,0,0,1-2.11-2.21,2.48,2.48,0,0,1,2.47-2.63A2,2,0,0,1,266.86,28.39Z" style="fill:#231f20"/><path d="M289.24,60.82A28.14,28.14,0,0,1,284.41,62c-1,0-1.5-.72-1.55-1.7s-.05-1.08-.25-1.08c-2.17,1.13-5.1,3-7.93,3a4.59,4.59,0,0,1-4.63-4.79c0-5,5.86-6.85,12.92-7l0-6.59c.05-2.88-.62-3.4-3.66-3.4-2.73,0-4.32.57-4.42,1-.21,1.6-.42,2.78-.57,3.66a3,3,0,0,1-2,1.39c-.82,0-1.13-.93-1.13-2.06,0-2.06,1-2.78,2.47-3.55a19.23,19.23,0,0,1,7.93-2c3.65,0,4.94,1.7,4.94,4.84l-.05,15.85h2.67Zm-6.33-8.65c.06-1-.1-1-.56-1s-8.8.72-8.8,5.82c0,1.8.82,3,3,3A16.56,16.56,0,0,0,282,58.55c.77-.31.82-.36.87-1.49Z" style="fill:#231f20"/><path d="M290.12,61.33V60.1l3.4-.05v-30c0-.82,0-4.37-.42-4.68a29,29,0,0,0-3.39-.21V23.56c1.18-.06,6.38-.52,7.56-.62,0,3.55,0,7.15,0,10.7V60.05l2.78.05v1.23Z" style="fill:#231f20"/><path d="M61.44,10.46V0H0V61.44H10.66a28.37,28.37,0,0,1-.9-7.07C9.76,34.23,31.27,17.06,61.44,10.46Z" style="fill:#6e8ba4"/><path d="M61.39,15.43C34.2,21.56,14.92,36.86,14.92,54.78a24.91,24.91,0,0,0,.9,6.61H61.39Z" style="fill:#adbac9"/></svg>